<mxfile host="app.diagrams.net" modified="2024-05-03T09:43:54.370Z" agent="Mozilla/5.0 (Windows NT 10.0; Win64; x64) AppleWebKit/537.36 (KHTML, like Gecko) Chrome/124.0.0.0 Safari/537.36" etag="Ti42dgEkwWqgFmH9d_DE" version="24.3.1" type="device">
  <diagram name="Page-1" id="HQ59dn_SEwEb2h_rpr_U">
    <mxGraphModel dx="5733" dy="3360" grid="1" gridSize="10" guides="1" tooltips="1" connect="1" arrows="1" fold="1" page="1" pageScale="1" pageWidth="850" pageHeight="1100" background="#f5f5f5" math="0" shadow="0">
      <root>
        <mxCell id="0" />
        <mxCell id="1" parent="0" />
        <mxCell id="sB9u__14FY8OSFTAFi7T-26" value="" style="rounded=0;whiteSpace=wrap;html=1;rotation=-90;" parent="1" vertex="1">
          <mxGeometry x="-769.3400000000003" y="2530" width="1013.75" height="687.19" as="geometry" />
        </mxCell>
        <mxCell id="sB9u__14FY8OSFTAFi7T-32" value="" style="rounded=1;whiteSpace=wrap;html=1;align=left;" parent="1" vertex="1">
          <mxGeometry x="-577.9200000000002" y="2510" width="599.99" height="780" as="geometry" />
        </mxCell>
        <mxCell id="sB9u__14FY8OSFTAFi7T-91" value="Cart Page" style="text;html=1;align=center;verticalAlign=middle;whiteSpace=wrap;rounded=0;" parent="1" vertex="1">
          <mxGeometry x="-452.4600000000001" y="2320" width="380" height="30" as="geometry" />
        </mxCell>
        <mxCell id="sB9u__14FY8OSFTAFi7T-93" value="DropDown" style="text;html=1;align=center;verticalAlign=middle;whiteSpace=wrap;rounded=0;" parent="1" vertex="1">
          <mxGeometry x="-42.920000000000144" y="2470" width="60" height="30" as="geometry" />
        </mxCell>
        <mxCell id="9G4B2yJPAgDf-MDbb51d-1" value="" style="rounded=1;whiteSpace=wrap;html=1;" parent="1" vertex="1">
          <mxGeometry x="-572.4600000000002" y="2400" width="609.54" height="60" as="geometry" />
        </mxCell>
        <mxCell id="9G4B2yJPAgDf-MDbb51d-2" value="Logo&amp;nbsp;" style="text;html=1;align=center;verticalAlign=middle;whiteSpace=wrap;rounded=0;" parent="1" vertex="1">
          <mxGeometry x="-556.9200000000002" y="2415" width="94" height="30" as="geometry" />
        </mxCell>
        <mxCell id="9G4B2yJPAgDf-MDbb51d-3" value="&lt;font style=&quot;font-size: 15px;&quot;&gt;App Logo&lt;/font&gt;" style="rounded=1;whiteSpace=wrap;html=1;" parent="1" vertex="1">
          <mxGeometry x="-556.9200000000002" y="2405" width="114" height="50" as="geometry" />
        </mxCell>
        <mxCell id="9G4B2yJPAgDf-MDbb51d-14" style="edgeStyle=orthogonalEdgeStyle;rounded=0;orthogonalLoop=1;jettySize=auto;html=1;exitX=0.75;exitY=1;exitDx=0;exitDy=0;" parent="1" source="9G4B2yJPAgDf-MDbb51d-4" edge="1">
          <mxGeometry relative="1" as="geometry">
            <mxPoint x="317.07999999999987" y="2560" as="targetPoint" />
          </mxGeometry>
        </mxCell>
        <mxCell id="9G4B2yJPAgDf-MDbb51d-4" value="" style="rounded=1;whiteSpace=wrap;html=1;" parent="1" vertex="1">
          <mxGeometry x="-417.93000000000035" y="2410" width="440" height="40" as="geometry" />
        </mxCell>
        <mxCell id="9G4B2yJPAgDf-MDbb51d-5" value="Search For Products" style="rounded=1;whiteSpace=wrap;html=1;" parent="1" vertex="1">
          <mxGeometry x="-392.92000000000013" y="2415" width="141.5" height="25" as="geometry" />
        </mxCell>
        <mxCell id="9G4B2yJPAgDf-MDbb51d-6" value="Search For Services" style="rounded=1;whiteSpace=wrap;html=1;" parent="1" vertex="1">
          <mxGeometry x="-164.42000000000013" y="2417.5" width="141.5" height="25" as="geometry" />
        </mxCell>
        <mxCell id="9G4B2yJPAgDf-MDbb51d-8" value="" style="rounded=1;whiteSpace=wrap;html=1;" parent="1" vertex="1">
          <mxGeometry x="-892.9200000000002" y="2565" width="170" height="295" as="geometry" />
        </mxCell>
        <mxCell id="9G4B2yJPAgDf-MDbb51d-9" value="" style="endArrow=classic;html=1;rounded=0;exitX=0.11;exitY=1.128;exitDx=0;exitDy=0;exitPerimeter=0;" parent="1" source="9G4B2yJPAgDf-MDbb51d-5" target="9G4B2yJPAgDf-MDbb51d-8" edge="1">
          <mxGeometry width="50" height="50" relative="1" as="geometry">
            <mxPoint x="-452.92000000000013" y="2610" as="sourcePoint" />
            <mxPoint x="-402.92000000000013" y="2560" as="targetPoint" />
            <Array as="points" />
          </mxGeometry>
        </mxCell>
        <mxCell id="9G4B2yJPAgDf-MDbb51d-10" value="Search Result 1&amp;nbsp;&lt;div&gt;Product Thumbnail and name&amp;nbsp;&lt;/div&gt;" style="rounded=1;whiteSpace=wrap;html=1;" parent="1" vertex="1">
          <mxGeometry x="-867.9200000000002" y="2590" width="120" height="60" as="geometry" />
        </mxCell>
        <mxCell id="9G4B2yJPAgDf-MDbb51d-11" value="Search Result 2 Product Thumbnail and name" style="rounded=1;whiteSpace=wrap;html=1;" parent="1" vertex="1">
          <mxGeometry x="-867.9200000000002" y="2682.5" width="120" height="60" as="geometry" />
        </mxCell>
        <mxCell id="9G4B2yJPAgDf-MDbb51d-12" value="Search Result 3 Product Thumbnail and name" style="rounded=1;whiteSpace=wrap;html=1;" parent="1" vertex="1">
          <mxGeometry x="-867.9200000000002" y="2770" width="120" height="60" as="geometry" />
        </mxCell>
        <mxCell id="9G4B2yJPAgDf-MDbb51d-16" value="" style="rounded=1;whiteSpace=wrap;html=1;" parent="1" vertex="1">
          <mxGeometry x="244.4099999999998" y="2565" width="210" height="355" as="geometry" />
        </mxCell>
        <mxCell id="9G4B2yJPAgDf-MDbb51d-17" value="Search Result 1&amp;nbsp;&lt;div&gt;Service Provider&amp;nbsp; name&amp;nbsp;&lt;/div&gt;" style="rounded=1;whiteSpace=wrap;html=1;" parent="1" vertex="1">
          <mxGeometry x="287.07999999999987" y="2605" width="120" height="60" as="geometry" />
        </mxCell>
        <mxCell id="9G4B2yJPAgDf-MDbb51d-19" value="Search Result 3 Service Provider&amp;nbsp; name" style="rounded=1;whiteSpace=wrap;html=1;" parent="1" vertex="1">
          <mxGeometry x="277.07999999999987" y="2790" width="120" height="60" as="geometry" />
        </mxCell>
        <mxCell id="9G4B2yJPAgDf-MDbb51d-20" value="Search Result 2&amp;nbsp;&lt;br&gt;&lt;div&gt;&lt;span style=&quot;background-color: initial;&quot;&gt;Service Provider&amp;nbsp; name&lt;/span&gt;&amp;nbsp;&lt;/div&gt;" style="rounded=1;whiteSpace=wrap;html=1;arcSize=44;" parent="1" vertex="1">
          <mxGeometry x="277.07999999999987" y="2695" width="120" height="60" as="geometry" />
        </mxCell>
        <mxCell id="9G4B2yJPAgDf-MDbb51d-21" value="" style="rounded=1;whiteSpace=wrap;html=1;" parent="1" vertex="1">
          <mxGeometry x="-545.4400000000002" y="2565" width="195.01" height="230" as="geometry" />
        </mxCell>
        <mxCell id="9G4B2yJPAgDf-MDbb51d-23" value="&lt;h1 style=&quot;margin-top: 0px;&quot;&gt;Product 1&amp;nbsp;&lt;/h1&gt;&lt;div&gt;Description&lt;/div&gt;&lt;div&gt;Home Delivery&amp;nbsp;&lt;/div&gt;&lt;div&gt;No of Items&amp;nbsp;&amp;nbsp;&lt;/div&gt;&lt;div&gt;Price Payable&lt;/div&gt;" style="text;html=1;whiteSpace=wrap;overflow=hidden;rounded=0;" parent="1" vertex="1">
          <mxGeometry x="-530.4300000000004" y="2585" width="180" height="120" as="geometry" />
        </mxCell>
        <mxCell id="9G4B2yJPAgDf-MDbb51d-25" value="" style="rounded=1;whiteSpace=wrap;html=1;" parent="1" vertex="1">
          <mxGeometry x="-545.4400000000002" y="2810" width="195.01" height="230" as="geometry" />
        </mxCell>
        <mxCell id="9G4B2yJPAgDf-MDbb51d-26" value="" style="rounded=1;whiteSpace=wrap;html=1;" parent="1" vertex="1">
          <mxGeometry x="-542.9400000000002" y="3050" width="195.01" height="230" as="geometry" />
        </mxCell>
        <mxCell id="9G4B2yJPAgDf-MDbb51d-28" value="&lt;h1 style=&quot;margin-top: 0px;&quot;&gt;Product 2&amp;nbsp;&lt;/h1&gt;&lt;div&gt;Description&lt;/div&gt;&lt;div&gt;Home Delivery&amp;nbsp;&lt;/div&gt;&lt;div&gt;No of Items&amp;nbsp;&amp;nbsp;&lt;/div&gt;&lt;div&gt;Price Payable&lt;/div&gt;" style="text;html=1;whiteSpace=wrap;overflow=hidden;rounded=0;" parent="1" vertex="1">
          <mxGeometry x="-537.9300000000004" y="2840" width="180" height="130" as="geometry" />
        </mxCell>
        <mxCell id="9G4B2yJPAgDf-MDbb51d-29" value="&lt;h1 style=&quot;margin-top: 0px;&quot;&gt;Product 2&amp;nbsp;&lt;/h1&gt;&lt;div&gt;Description&lt;/div&gt;&lt;div&gt;Home Delivery&amp;nbsp;&lt;/div&gt;&lt;div&gt;No of Items&amp;nbsp;&amp;nbsp;&lt;/div&gt;&lt;div&gt;Price Payable&lt;/div&gt;" style="text;html=1;whiteSpace=wrap;overflow=hidden;rounded=0;" parent="1" vertex="1">
          <mxGeometry x="-522.9200000000002" y="3100" width="180" height="130" as="geometry" />
        </mxCell>
        <mxCell id="9G4B2yJPAgDf-MDbb51d-30" value="Your Cart&amp;nbsp;" style="rounded=0;whiteSpace=wrap;html=1;" parent="1" vertex="1">
          <mxGeometry x="-530.4300000000004" y="2525" width="170" height="30" as="geometry" />
        </mxCell>
        <mxCell id="9G4B2yJPAgDf-MDbb51d-33" value="" style="rounded=1;whiteSpace=wrap;html=1;" parent="1" vertex="1">
          <mxGeometry x="-282.92000000000013" y="2570" width="270" height="420" as="geometry" />
        </mxCell>
        <mxCell id="9G4B2yJPAgDf-MDbb51d-34" value="" style="rounded=1;whiteSpace=wrap;html=1;" parent="1" vertex="1">
          <mxGeometry x="-251.42000000000013" y="2600" width="208.5" height="250" as="geometry" />
        </mxCell>
        <mxCell id="9G4B2yJPAgDf-MDbb51d-35" value="SubTotal&amp;nbsp;" style="text;html=1;align=center;verticalAlign=middle;whiteSpace=wrap;rounded=0;" parent="1" vertex="1">
          <mxGeometry x="-224.42000000000013" y="2615" width="60" height="30" as="geometry" />
        </mxCell>
        <mxCell id="9G4B2yJPAgDf-MDbb51d-36" value="Delivery&amp;nbsp;" style="text;html=1;align=center;verticalAlign=middle;whiteSpace=wrap;rounded=0;" parent="1" vertex="1">
          <mxGeometry x="-227.93000000000035" y="2665" width="60" height="30" as="geometry" />
        </mxCell>
        <mxCell id="9G4B2yJPAgDf-MDbb51d-37" value="Total :&amp;nbsp; &amp;nbsp; &amp;nbsp; &amp;nbsp; &amp;nbsp; &amp;nbsp; &amp;nbsp; &amp;nbsp; &amp;nbsp; &amp;nbsp; &amp;nbsp; &amp;nbsp; &amp;nbsp; &amp;nbsp; &amp;nbsp;&amp;nbsp;" style="rounded=1;whiteSpace=wrap;html=1;" parent="1" vertex="1">
          <mxGeometry x="-232.92000000000013" y="2710" width="160" height="40" as="geometry" />
        </mxCell>
        <mxCell id="9G4B2yJPAgDf-MDbb51d-38" value="Checkout" style="rounded=1;whiteSpace=wrap;html=1;" parent="1" vertex="1">
          <mxGeometry x="-232.92000000000013" y="2770" width="170" height="40" as="geometry" />
        </mxCell>
        <mxCell id="9G4B2yJPAgDf-MDbb51d-42" value="" style="endArrow=none;html=1;rounded=0;entryX=0.049;entryY=1.004;entryDx=0;entryDy=0;entryPerimeter=0;" parent="1" target="sB9u__14FY8OSFTAFi7T-26" edge="1">
          <mxGeometry width="50" height="50" relative="1" as="geometry">
            <mxPoint x="-602.9200000000002" y="3330" as="sourcePoint" />
            <mxPoint x="-162.92000000000013" y="3030" as="targetPoint" />
          </mxGeometry>
        </mxCell>
        <mxCell id="9G4B2yJPAgDf-MDbb51d-43" value="Footer" style="text;html=1;align=center;verticalAlign=middle;whiteSpace=wrap;rounded=0;" parent="1" vertex="1">
          <mxGeometry x="-597.9300000000004" y="3340" width="655.01" height="30" as="geometry" />
        </mxCell>
        <mxCell id="B_CpDAsh1I-Uy5bGZGsl-50" value="" style="rounded=0;whiteSpace=wrap;html=1;rotation=-90;" vertex="1" parent="1">
          <mxGeometry x="-2438.4300000000003" y="2600" width="1013.75" height="687.19" as="geometry" />
        </mxCell>
        <mxCell id="B_CpDAsh1I-Uy5bGZGsl-51" value="Checkout Page" style="text;html=1;align=center;verticalAlign=middle;whiteSpace=wrap;rounded=0;" vertex="1" parent="1">
          <mxGeometry x="-876.26" y="690" width="380" height="30" as="geometry" />
        </mxCell>
        <mxCell id="B_CpDAsh1I-Uy5bGZGsl-52" value="DropDown" style="text;html=1;align=center;verticalAlign=middle;whiteSpace=wrap;rounded=0;" vertex="1" parent="1">
          <mxGeometry x="-1712.0100000000002" y="2540" width="60" height="30" as="geometry" />
        </mxCell>
        <mxCell id="B_CpDAsh1I-Uy5bGZGsl-53" value="" style="rounded=1;whiteSpace=wrap;html=1;" vertex="1" parent="1">
          <mxGeometry x="-2267.02" y="2470" width="609.54" height="60" as="geometry" />
        </mxCell>
        <mxCell id="B_CpDAsh1I-Uy5bGZGsl-54" value="Logo&amp;nbsp;" style="text;html=1;align=center;verticalAlign=middle;whiteSpace=wrap;rounded=0;" vertex="1" parent="1">
          <mxGeometry x="-2226.01" y="2485" width="94" height="30" as="geometry" />
        </mxCell>
        <mxCell id="B_CpDAsh1I-Uy5bGZGsl-55" value="&lt;font style=&quot;font-size: 15px;&quot;&gt;App Logo&lt;/font&gt;" style="rounded=1;whiteSpace=wrap;html=1;" vertex="1" parent="1">
          <mxGeometry x="-2252.01" y="2475" width="114" height="50" as="geometry" />
        </mxCell>
        <mxCell id="B_CpDAsh1I-Uy5bGZGsl-56" style="edgeStyle=orthogonalEdgeStyle;rounded=0;orthogonalLoop=1;jettySize=auto;html=1;exitX=0.75;exitY=1;exitDx=0;exitDy=0;" edge="1" parent="1">
          <mxGeometry relative="1" as="geometry">
            <mxPoint x="-1352.0100000000002" y="2632.45" as="targetPoint" />
            <mxPoint x="-1792.0100000000002" y="2522.45" as="sourcePoint" />
            <Array as="points">
              <mxPoint x="-1802.0100000000002" y="2522.45" />
              <mxPoint x="-1802.0100000000002" y="2512.45" />
              <mxPoint x="-1757.0100000000002" y="2512.45" />
              <mxPoint x="-1757.0100000000002" y="2577.45" />
              <mxPoint x="-1352.0100000000002" y="2577.45" />
            </Array>
          </mxGeometry>
        </mxCell>
        <mxCell id="B_CpDAsh1I-Uy5bGZGsl-57" value="" style="rounded=1;whiteSpace=wrap;html=1;" vertex="1" parent="1">
          <mxGeometry x="-2122.01" y="2480" width="440" height="40" as="geometry" />
        </mxCell>
        <mxCell id="B_CpDAsh1I-Uy5bGZGsl-58" value="Search For Products" style="rounded=1;whiteSpace=wrap;html=1;" vertex="1" parent="1">
          <mxGeometry x="-2102.01" y="2487.5" width="141.5" height="25" as="geometry" />
        </mxCell>
        <mxCell id="B_CpDAsh1I-Uy5bGZGsl-59" style="edgeStyle=orthogonalEdgeStyle;rounded=0;orthogonalLoop=1;jettySize=auto;html=1;exitX=0.25;exitY=1;exitDx=0;exitDy=0;" edge="1" parent="1" source="B_CpDAsh1I-Uy5bGZGsl-60" target="B_CpDAsh1I-Uy5bGZGsl-74">
          <mxGeometry relative="1" as="geometry">
            <Array as="points">
              <mxPoint x="-1707.0100000000002" y="2520" />
              <mxPoint x="-1755.0100000000002" y="2520" />
              <mxPoint x="-1755.0100000000002" y="2502" />
            </Array>
          </mxGeometry>
        </mxCell>
        <mxCell id="B_CpDAsh1I-Uy5bGZGsl-60" value="Home" style="rounded=1;whiteSpace=wrap;html=1;" vertex="1" parent="1">
          <mxGeometry x="-1742.0100000000002" y="2490" width="60" height="25" as="geometry" />
        </mxCell>
        <mxCell id="B_CpDAsh1I-Uy5bGZGsl-61" value="" style="rounded=1;whiteSpace=wrap;html=1;" vertex="1" parent="1">
          <mxGeometry x="-2562.01" y="2635" width="170" height="295" as="geometry" />
        </mxCell>
        <mxCell id="B_CpDAsh1I-Uy5bGZGsl-62" value="" style="endArrow=classic;html=1;rounded=0;exitX=0.11;exitY=1.128;exitDx=0;exitDy=0;exitPerimeter=0;" edge="1" parent="1" source="B_CpDAsh1I-Uy5bGZGsl-58" target="B_CpDAsh1I-Uy5bGZGsl-61">
          <mxGeometry width="50" height="50" relative="1" as="geometry">
            <mxPoint x="-2122.01" y="2680" as="sourcePoint" />
            <mxPoint x="-2072.01" y="2630" as="targetPoint" />
            <Array as="points" />
          </mxGeometry>
        </mxCell>
        <mxCell id="B_CpDAsh1I-Uy5bGZGsl-63" value="Search Result 1&amp;nbsp;&lt;div&gt;Product Thumbnail and name&amp;nbsp;&lt;/div&gt;" style="rounded=1;whiteSpace=wrap;html=1;" vertex="1" parent="1">
          <mxGeometry x="-2537.01" y="2660" width="120" height="60" as="geometry" />
        </mxCell>
        <mxCell id="B_CpDAsh1I-Uy5bGZGsl-64" value="Search Result 2 Product Thumbnail and name" style="rounded=1;whiteSpace=wrap;html=1;" vertex="1" parent="1">
          <mxGeometry x="-2537.01" y="2752.5" width="120" height="60" as="geometry" />
        </mxCell>
        <mxCell id="B_CpDAsh1I-Uy5bGZGsl-65" value="Search Result 3 Product Thumbnail and name" style="rounded=1;whiteSpace=wrap;html=1;" vertex="1" parent="1">
          <mxGeometry x="-2537.01" y="2840" width="120" height="60" as="geometry" />
        </mxCell>
        <mxCell id="B_CpDAsh1I-Uy5bGZGsl-66" value="" style="rounded=1;whiteSpace=wrap;html=1;" vertex="1" parent="1">
          <mxGeometry x="-1424.68" y="2635" width="210" height="355" as="geometry" />
        </mxCell>
        <mxCell id="B_CpDAsh1I-Uy5bGZGsl-67" value="Search Result 1&amp;nbsp;&lt;div&gt;Service Provider&amp;nbsp; name&amp;nbsp;&lt;/div&gt;" style="rounded=1;whiteSpace=wrap;html=1;" vertex="1" parent="1">
          <mxGeometry x="-1382.0100000000002" y="2675" width="120" height="60" as="geometry" />
        </mxCell>
        <mxCell id="B_CpDAsh1I-Uy5bGZGsl-68" value="Search Result 3 Service Provider&amp;nbsp; name" style="rounded=1;whiteSpace=wrap;html=1;" vertex="1" parent="1">
          <mxGeometry x="-1392.0100000000002" y="2860" width="120" height="60" as="geometry" />
        </mxCell>
        <mxCell id="B_CpDAsh1I-Uy5bGZGsl-69" value="Search Result 2&amp;nbsp;&lt;br&gt;&lt;div&gt;&lt;span style=&quot;background-color: initial;&quot;&gt;Service Provider&amp;nbsp; name&lt;/span&gt;&amp;nbsp;&lt;/div&gt;" style="rounded=1;whiteSpace=wrap;html=1;arcSize=44;" vertex="1" parent="1">
          <mxGeometry x="-1392.0100000000002" y="2765" width="120" height="60" as="geometry" />
        </mxCell>
        <mxCell id="B_CpDAsh1I-Uy5bGZGsl-70" value="" style="rounded=1;whiteSpace=wrap;html=1;" vertex="1" parent="1">
          <mxGeometry x="-1872.0100000000002" y="2610" width="270" height="450" as="geometry" />
        </mxCell>
        <mxCell id="B_CpDAsh1I-Uy5bGZGsl-71" value="" style="rounded=1;whiteSpace=wrap;html=1;" vertex="1" parent="1">
          <mxGeometry x="-1841.2600000000002" y="2660" width="208.5" height="250" as="geometry" />
        </mxCell>
        <mxCell id="B_CpDAsh1I-Uy5bGZGsl-72" value="" style="endArrow=none;html=1;rounded=0;entryX=0.049;entryY=1.004;entryDx=0;entryDy=0;entryPerimeter=0;" edge="1" parent="1" target="B_CpDAsh1I-Uy5bGZGsl-50">
          <mxGeometry width="50" height="50" relative="1" as="geometry">
            <mxPoint x="-2272.01" y="3400" as="sourcePoint" />
            <mxPoint x="-1832.0100000000002" y="3100" as="targetPoint" />
          </mxGeometry>
        </mxCell>
        <mxCell id="B_CpDAsh1I-Uy5bGZGsl-73" value="Footer" style="text;html=1;align=center;verticalAlign=middle;whiteSpace=wrap;rounded=0;" vertex="1" parent="1">
          <mxGeometry x="-2267.02" y="3410" width="655.01" height="30" as="geometry" />
        </mxCell>
        <mxCell id="B_CpDAsh1I-Uy5bGZGsl-74" value="Search For Services" style="rounded=1;whiteSpace=wrap;html=1;" vertex="1" parent="1">
          <mxGeometry x="-1938.7400000000002" y="2490" width="150.46" height="25" as="geometry" />
        </mxCell>
        <mxCell id="B_CpDAsh1I-Uy5bGZGsl-75" value="Profile Icon" style="ellipse;whiteSpace=wrap;html=1;" vertex="1" parent="1">
          <mxGeometry x="-1652.0100000000002" y="2470" width="60" height="60" as="geometry" />
        </mxCell>
        <mxCell id="B_CpDAsh1I-Uy5bGZGsl-76" value="" style="endArrow=classic;html=1;rounded=0;" edge="1" parent="1" source="B_CpDAsh1I-Uy5bGZGsl-75" target="B_CpDAsh1I-Uy5bGZGsl-77">
          <mxGeometry width="50" height="50" relative="1" as="geometry">
            <mxPoint x="-1912.0100000000002" y="2660" as="sourcePoint" />
            <mxPoint x="-1482.0100000000002" y="2500" as="targetPoint" />
          </mxGeometry>
        </mxCell>
        <mxCell id="B_CpDAsh1I-Uy5bGZGsl-77" value="Profile Page" style="whiteSpace=wrap;html=1;aspect=fixed;" vertex="1" parent="1">
          <mxGeometry x="-1522.0100000000002" y="2460" width="80" height="80" as="geometry" />
        </mxCell>
        <mxCell id="B_CpDAsh1I-Uy5bGZGsl-78" value="Service/Product&amp;nbsp; &amp;nbsp; &amp;nbsp; &amp;nbsp;Price" style="rounded=0;whiteSpace=wrap;html=1;" vertex="1" parent="1">
          <mxGeometry x="-1827.0100000000002" y="2677.5" width="160" height="57.5" as="geometry" />
        </mxCell>
        <mxCell id="B_CpDAsh1I-Uy5bGZGsl-79" value="Service/Product&amp;nbsp; &amp;nbsp; &amp;nbsp; &amp;nbsp;Price" style="rounded=0;whiteSpace=wrap;html=1;" vertex="1" parent="1">
          <mxGeometry x="-1827.0100000000002" y="2752.5" width="160" height="57.5" as="geometry" />
        </mxCell>
        <mxCell id="B_CpDAsh1I-Uy5bGZGsl-80" value="Service/Product&amp;nbsp; &amp;nbsp; &amp;nbsp; &amp;nbsp;Price" style="rounded=0;whiteSpace=wrap;html=1;" vertex="1" parent="1">
          <mxGeometry x="-1827.0100000000002" y="2825" width="160" height="60" as="geometry" />
        </mxCell>
        <mxCell id="B_CpDAsh1I-Uy5bGZGsl-81" value="Total&amp;nbsp; &amp;nbsp; &amp;nbsp; &amp;nbsp; &amp;nbsp; &amp;nbsp; &amp;nbsp; &amp;nbsp; &amp;nbsp; &amp;nbsp; &amp;nbsp; &amp;nbsp; &amp;nbsp; &amp;nbsp; &amp;nbsp; &amp;nbsp; &amp;nbsp; &amp;nbsp; &amp;nbsp;" style="rounded=1;whiteSpace=wrap;html=1;" vertex="1" parent="1">
          <mxGeometry x="-1827.0100000000002" y="2950" width="180" height="60" as="geometry" />
        </mxCell>
        <mxCell id="B_CpDAsh1I-Uy5bGZGsl-82" value="In Your Cart&amp;nbsp;" style="text;html=1;align=center;verticalAlign=middle;whiteSpace=wrap;rounded=0;" vertex="1" parent="1">
          <mxGeometry x="-1841.2600000000002" y="2630" width="120" height="30" as="geometry" />
        </mxCell>
        <mxCell id="B_CpDAsh1I-Uy5bGZGsl-83" value="" style="rounded=1;whiteSpace=wrap;html=1;" vertex="1" parent="1">
          <mxGeometry x="-2242.01" y="2600" width="350" height="510" as="geometry" />
        </mxCell>
        <mxCell id="B_CpDAsh1I-Uy5bGZGsl-84" style="edgeStyle=orthogonalEdgeStyle;rounded=0;orthogonalLoop=1;jettySize=auto;html=1;exitX=0;exitY=0.5;exitDx=0;exitDy=0;" edge="1" parent="1" source="B_CpDAsh1I-Uy5bGZGsl-50" target="B_CpDAsh1I-Uy5bGZGsl-50">
          <mxGeometry relative="1" as="geometry" />
        </mxCell>
        <mxCell id="B_CpDAsh1I-Uy5bGZGsl-85" value="" style="rounded=1;whiteSpace=wrap;html=1;" vertex="1" parent="1">
          <mxGeometry x="-2222.01" y="2640" width="300" height="60" as="geometry" />
        </mxCell>
        <mxCell id="B_CpDAsh1I-Uy5bGZGsl-86" value="&#xa;&lt;span style=&quot;color: rgb(0, 0, 0); font-family: Helvetica; font-size: 12px; font-style: normal; font-variant-ligatures: normal; font-variant-caps: normal; font-weight: 400; letter-spacing: normal; orphans: 2; text-align: center; text-indent: 0px; text-transform: none; widows: 2; word-spacing: 0px; -webkit-text-stroke-width: 0px; white-space: normal; background-color: rgb(251, 251, 251); text-decoration-thickness: initial; text-decoration-style: initial; text-decoration-color: initial; display: inline !important; float: none;&quot;&gt;Paypal&lt;/span&gt;&#xa;&#xa;" style="text;strokeColor=none;align=center;fillColor=none;html=1;verticalAlign=middle;whiteSpace=wrap;rounded=0;" vertex="1" parent="1">
          <mxGeometry x="-2209.01" y="2660" width="60" height="30" as="geometry" />
        </mxCell>
        <mxCell id="B_CpDAsh1I-Uy5bGZGsl-87" value="&lt;b&gt;&lt;u&gt;Debit Card&lt;/u&gt;&lt;/b&gt;" style="text;html=1;align=center;verticalAlign=middle;resizable=0;points=[];autosize=1;strokeColor=none;fillColor=none;" vertex="1" parent="1">
          <mxGeometry x="-2136.55" y="2655" width="80" height="30" as="geometry" />
        </mxCell>
        <mxCell id="B_CpDAsh1I-Uy5bGZGsl-88" value="UPI" style="text;html=1;align=center;verticalAlign=middle;whiteSpace=wrap;rounded=0;" vertex="1" parent="1">
          <mxGeometry x="-2022.0100000000002" y="2655" width="61.5" height="30" as="geometry" />
        </mxCell>
        <mxCell id="B_CpDAsh1I-Uy5bGZGsl-89" value="" style="rounded=1;whiteSpace=wrap;html=1;" vertex="1" parent="1">
          <mxGeometry x="-2212.01" y="2740" width="280" height="350" as="geometry" />
        </mxCell>
        <mxCell id="B_CpDAsh1I-Uy5bGZGsl-90" value="" style="rounded=1;whiteSpace=wrap;html=1;" vertex="1" parent="1">
          <mxGeometry x="-2182.01" y="2790" width="220" height="50" as="geometry" />
        </mxCell>
        <mxCell id="B_CpDAsh1I-Uy5bGZGsl-91" value="" style="rounded=1;whiteSpace=wrap;html=1;" vertex="1" parent="1">
          <mxGeometry x="-2182.01" y="2880" width="220" height="50" as="geometry" />
        </mxCell>
        <mxCell id="B_CpDAsh1I-Uy5bGZGsl-92" value="" style="rounded=1;whiteSpace=wrap;html=1;" vertex="1" parent="1">
          <mxGeometry x="-2180.51" y="2970" width="98.5" height="50" as="geometry" />
        </mxCell>
        <mxCell id="B_CpDAsh1I-Uy5bGZGsl-93" value="Name on Card&amp;nbsp;" style="text;html=1;align=center;verticalAlign=middle;whiteSpace=wrap;rounded=0;" vertex="1" parent="1">
          <mxGeometry x="-2180.51" y="2760" width="118.5" height="30" as="geometry" />
        </mxCell>
        <mxCell id="B_CpDAsh1I-Uy5bGZGsl-94" value="Card Number" style="text;html=1;align=center;verticalAlign=middle;whiteSpace=wrap;rounded=0;" vertex="1" parent="1">
          <mxGeometry x="-2180.51" y="2850" width="88.5" height="30" as="geometry" />
        </mxCell>
        <mxCell id="B_CpDAsh1I-Uy5bGZGsl-95" value="Expiry" style="text;html=1;align=center;verticalAlign=middle;whiteSpace=wrap;rounded=0;" vertex="1" parent="1">
          <mxGeometry x="-2180.51" y="2940" width="60" height="30" as="geometry" />
        </mxCell>
        <mxCell id="B_CpDAsh1I-Uy5bGZGsl-96" value="" style="rounded=1;whiteSpace=wrap;html=1;" vertex="1" parent="1">
          <mxGeometry x="-2062.01" y="2970" width="110" height="50" as="geometry" />
        </mxCell>
        <mxCell id="B_CpDAsh1I-Uy5bGZGsl-97" value="CVV" style="text;html=1;align=center;verticalAlign=middle;whiteSpace=wrap;rounded=0;" vertex="1" parent="1">
          <mxGeometry x="-2061.26" y="2940" width="60" height="30" as="geometry" />
        </mxCell>
        <mxCell id="B_CpDAsh1I-Uy5bGZGsl-98" value="Pay&amp;nbsp;" style="rounded=1;whiteSpace=wrap;html=1;" vertex="1" parent="1">
          <mxGeometry x="-2138.01" y="3030" width="120" height="50" as="geometry" />
        </mxCell>
        <mxCell id="B_CpDAsh1I-Uy5bGZGsl-99" value="" style="whiteSpace=wrap;html=1;aspect=fixed;" vertex="1" parent="1">
          <mxGeometry x="-80" y="-2120" width="480" height="480" as="geometry" />
        </mxCell>
        <mxCell id="B_CpDAsh1I-Uy5bGZGsl-100" value="App Name/Logo" style="rounded=0;whiteSpace=wrap;html=1;" vertex="1" parent="1">
          <mxGeometry x="90" y="-2080" width="120" height="60" as="geometry" />
        </mxCell>
        <mxCell id="B_CpDAsh1I-Uy5bGZGsl-101" value="" style="rounded=0;whiteSpace=wrap;html=1;rotation=-90;" vertex="1" parent="1">
          <mxGeometry x="45.379999999999995" y="-1913.87" width="220.25" height="172.81" as="geometry" />
        </mxCell>
        <mxCell id="B_CpDAsh1I-Uy5bGZGsl-102" value="Sign Up" style="rounded=0;whiteSpace=wrap;html=1;" vertex="1" parent="1">
          <mxGeometry x="115" y="-1970" width="70" height="20" as="geometry" />
        </mxCell>
        <mxCell id="B_CpDAsh1I-Uy5bGZGsl-103" value="Name" style="rounded=0;whiteSpace=wrap;html=1;" vertex="1" parent="1">
          <mxGeometry x="95" y="-1910" width="120" height="20" as="geometry" />
        </mxCell>
        <mxCell id="B_CpDAsh1I-Uy5bGZGsl-104" value="Email" style="rounded=0;whiteSpace=wrap;html=1;" vertex="1" parent="1">
          <mxGeometry x="95.5" y="-1880" width="120" height="20" as="geometry" />
        </mxCell>
        <mxCell id="B_CpDAsh1I-Uy5bGZGsl-105" value="Confirm Password" style="rounded=0;whiteSpace=wrap;html=1;" vertex="1" parent="1">
          <mxGeometry x="95" y="-1790" width="120" height="20" as="geometry" />
        </mxCell>
        <mxCell id="B_CpDAsh1I-Uy5bGZGsl-106" value="Password" style="rounded=0;whiteSpace=wrap;html=1;" vertex="1" parent="1">
          <mxGeometry x="95" y="-1820" width="120" height="20" as="geometry" />
        </mxCell>
        <mxCell id="B_CpDAsh1I-Uy5bGZGsl-107" value="Contact No" style="rounded=0;whiteSpace=wrap;html=1;" vertex="1" parent="1">
          <mxGeometry x="95.5" y="-1850" width="120" height="20" as="geometry" />
        </mxCell>
        <mxCell id="B_CpDAsh1I-Uy5bGZGsl-108" value="Register" style="rounded=0;whiteSpace=wrap;html=1;" vertex="1" parent="1">
          <mxGeometry x="117" y="-1750" width="70" height="20" as="geometry" />
        </mxCell>
        <mxCell id="B_CpDAsh1I-Uy5bGZGsl-109" value="" style="whiteSpace=wrap;html=1;aspect=fixed;" vertex="1" parent="1">
          <mxGeometry x="-890" y="-2120" width="480" height="480" as="geometry" />
        </mxCell>
        <mxCell id="B_CpDAsh1I-Uy5bGZGsl-110" value="App Name/Logo" style="rounded=0;whiteSpace=wrap;html=1;" vertex="1" parent="1">
          <mxGeometry x="-710" y="-2090" width="120" height="60" as="geometry" />
        </mxCell>
        <mxCell id="B_CpDAsh1I-Uy5bGZGsl-111" value="" style="whiteSpace=wrap;html=1;aspect=fixed;" vertex="1" parent="1">
          <mxGeometry x="-780" y="-1970" width="270" height="270" as="geometry" />
        </mxCell>
        <mxCell id="B_CpDAsh1I-Uy5bGZGsl-112" value="" style="rounded=0;whiteSpace=wrap;html=1;" vertex="1" parent="1">
          <mxGeometry x="-740" y="-1950" width="70" height="30" as="geometry" />
        </mxCell>
        <mxCell id="B_CpDAsh1I-Uy5bGZGsl-113" value="Sign In" style="text;html=1;align=center;verticalAlign=middle;whiteSpace=wrap;rounded=0;" vertex="1" parent="1">
          <mxGeometry x="-735" y="-1950" width="60" height="30" as="geometry" />
        </mxCell>
        <mxCell id="B_CpDAsh1I-Uy5bGZGsl-114" value="Sign Up" style="rounded=0;whiteSpace=wrap;html=1;" vertex="1" parent="1">
          <mxGeometry x="-620" y="-1950" width="70" height="30" as="geometry" />
        </mxCell>
        <mxCell id="B_CpDAsh1I-Uy5bGZGsl-115" value="" style="whiteSpace=wrap;html=1;aspect=fixed;" vertex="1" parent="1">
          <mxGeometry x="-720" y="-1890" width="150" height="150" as="geometry" />
        </mxCell>
        <mxCell id="B_CpDAsh1I-Uy5bGZGsl-116" value="Email" style="rounded=0;whiteSpace=wrap;html=1;" vertex="1" parent="1">
          <mxGeometry x="-702" y="-1880" width="115" height="30" as="geometry" />
        </mxCell>
        <mxCell id="B_CpDAsh1I-Uy5bGZGsl-117" value="Password" style="rounded=0;whiteSpace=wrap;html=1;" vertex="1" parent="1">
          <mxGeometry x="-702" y="-1840" width="115" height="30" as="geometry" />
        </mxCell>
        <mxCell id="B_CpDAsh1I-Uy5bGZGsl-118" value="Sign In" style="rounded=0;whiteSpace=wrap;html=1;" vertex="1" parent="1">
          <mxGeometry x="-675" y="-1800" width="60" height="20" as="geometry" />
        </mxCell>
        <mxCell id="B_CpDAsh1I-Uy5bGZGsl-119" style="edgeStyle=orthogonalEdgeStyle;rounded=0;orthogonalLoop=1;jettySize=auto;html=1;exitX=0.5;exitY=0;exitDx=0;exitDy=0;entryX=1;entryY=0.5;entryDx=0;entryDy=0;" edge="1" parent="1" source="B_CpDAsh1I-Uy5bGZGsl-118" target="B_CpDAsh1I-Uy5bGZGsl-118">
          <mxGeometry relative="1" as="geometry" />
        </mxCell>
        <mxCell id="B_CpDAsh1I-Uy5bGZGsl-120" value="&lt;font style=&quot;font-size: 9px;&quot;&gt;Forgot Password?&lt;/font&gt;" style="text;html=1;align=center;verticalAlign=middle;whiteSpace=wrap;rounded=0;strokeWidth=0;" vertex="1" parent="1">
          <mxGeometry x="-670" y="-1760" width="50" height="10" as="geometry" />
        </mxCell>
        <mxCell id="B_CpDAsh1I-Uy5bGZGsl-121" value="" style="rounded=0;whiteSpace=wrap;html=1;rotation=-90;" vertex="1" parent="1">
          <mxGeometry x="-1283.75" y="-1266.73" width="1013.75" height="687.19" as="geometry" />
        </mxCell>
        <mxCell id="B_CpDAsh1I-Uy5bGZGsl-122" value="&lt;font style=&quot;font-size: 18px;&quot;&gt;Address of current Locality of User&lt;/font&gt;" style="rounded=0;whiteSpace=wrap;html=1;strokeWidth=2;" vertex="1" parent="1">
          <mxGeometry x="-1107.34" y="-1380" width="280" height="50" as="geometry" />
        </mxCell>
        <mxCell id="B_CpDAsh1I-Uy5bGZGsl-123" value="&lt;font style=&quot;font-size: 14px;&quot;&gt;Search For Services And Products Nearby&lt;/font&gt;" style="rounded=0;whiteSpace=wrap;html=1;" vertex="1" parent="1">
          <mxGeometry x="-807.3399999999999" y="-1380" width="190" height="50" as="geometry" />
        </mxCell>
        <mxCell id="B_CpDAsh1I-Uy5bGZGsl-124" value="&lt;font style=&quot;font-size: 18px;&quot;&gt;Profile Icon&lt;/font&gt;" style="ellipse;whiteSpace=wrap;html=1;" vertex="1" parent="1">
          <mxGeometry x="-587.3399999999999" y="-1395" width="120" height="95" as="geometry" />
        </mxCell>
        <mxCell id="B_CpDAsh1I-Uy5bGZGsl-125" value="&lt;font style=&quot;font-size: 21px;&quot;&gt;&lt;b&gt;&lt;u&gt;Top Products&lt;/u&gt;&lt;/b&gt;&amp;nbsp; &amp;nbsp; &amp;nbsp; &amp;nbsp; &amp;nbsp; &amp;nbsp; &amp;nbsp; &amp;nbsp; &amp;nbsp; &amp;nbsp; &amp;nbsp; &amp;nbsp; &amp;nbsp; &amp;nbsp; &amp;nbsp; &amp;nbsp; &amp;nbsp; &amp;nbsp; &amp;nbsp; &amp;nbsp; &amp;nbsp; &amp;nbsp; &amp;nbsp; &amp;nbsp; &amp;nbsp; &amp;nbsp; &amp;nbsp; &amp;nbsp; &amp;nbsp;Top Services&lt;/font&gt;" style="rounded=1;whiteSpace=wrap;html=1;" vertex="1" parent="1">
          <mxGeometry x="-1074.8799999999999" y="-1280" width="596" height="60" as="geometry" />
        </mxCell>
        <mxCell id="B_CpDAsh1I-Uy5bGZGsl-126" value="" style="rounded=1;whiteSpace=wrap;html=1;align=left;" vertex="1" parent="1">
          <mxGeometry x="-1087.34" y="-1180" width="599.99" height="270" as="geometry" />
        </mxCell>
        <mxCell id="B_CpDAsh1I-Uy5bGZGsl-127" value="&lt;font style=&quot;font-size: 22px;&quot;&gt;List of Top Products&lt;/font&gt;" style="text;html=1;align=center;verticalAlign=middle;whiteSpace=wrap;rounded=0;" vertex="1" parent="1">
          <mxGeometry x="-1047.34" y="-1120" width="540" height="30" as="geometry" />
        </mxCell>
        <mxCell id="B_CpDAsh1I-Uy5bGZGsl-128" value="" style="rounded=1;whiteSpace=wrap;html=1;" vertex="1" parent="1">
          <mxGeometry x="-1047.34" y="-1050" width="120" height="130" as="geometry" />
        </mxCell>
        <mxCell id="B_CpDAsh1I-Uy5bGZGsl-129" value="" style="rounded=1;whiteSpace=wrap;html=1;" vertex="1" parent="1">
          <mxGeometry x="-627.3399999999999" y="-1050" width="120" height="130" as="geometry" />
        </mxCell>
        <mxCell id="B_CpDAsh1I-Uy5bGZGsl-130" value="" style="rounded=1;whiteSpace=wrap;html=1;" vertex="1" parent="1">
          <mxGeometry x="-767.3399999999999" y="-1050" width="120" height="130" as="geometry" />
        </mxCell>
        <mxCell id="B_CpDAsh1I-Uy5bGZGsl-131" value="" style="rounded=1;whiteSpace=wrap;html=1;" vertex="1" parent="1">
          <mxGeometry x="-907.3399999999999" y="-1050" width="120" height="130" as="geometry" />
        </mxCell>
        <mxCell id="B_CpDAsh1I-Uy5bGZGsl-417" style="edgeStyle=orthogonalEdgeStyle;rounded=0;orthogonalLoop=1;jettySize=auto;html=1;" edge="1" parent="1" source="B_CpDAsh1I-Uy5bGZGsl-132" target="B_CpDAsh1I-Uy5bGZGsl-220">
          <mxGeometry relative="1" as="geometry">
            <Array as="points">
              <mxPoint x="-1510" y="-988" />
              <mxPoint x="-1510" y="-350" />
              <mxPoint x="-793" y="-350" />
            </Array>
          </mxGeometry>
        </mxCell>
        <mxCell id="B_CpDAsh1I-Uy5bGZGsl-132" value="&lt;h1 style=&quot;margin-top: 0px;&quot;&gt;&lt;font style=&quot;font-size: 22px;&quot;&gt;Product 1&lt;/font&gt;&lt;/h1&gt;&lt;div&gt;Product Semi Description&lt;/div&gt;" style="text;html=1;whiteSpace=wrap;overflow=hidden;rounded=0;" vertex="1" parent="1">
          <mxGeometry x="-1042.34" y="-1045" width="110" height="115" as="geometry" />
        </mxCell>
        <mxCell id="B_CpDAsh1I-Uy5bGZGsl-133" value="&lt;h1 style=&quot;margin-top: 0px;&quot;&gt;&lt;font style=&quot;font-size: 22px;&quot;&gt;Product 4&lt;/font&gt;&lt;/h1&gt;&lt;div&gt;Product Semi Description&lt;/div&gt;" style="text;html=1;whiteSpace=wrap;overflow=hidden;rounded=0;" vertex="1" parent="1">
          <mxGeometry x="-627.3399999999999" y="-1045" width="110" height="115" as="geometry" />
        </mxCell>
        <mxCell id="B_CpDAsh1I-Uy5bGZGsl-134" value="&lt;h1 style=&quot;margin-top: 0px;&quot;&gt;&lt;font style=&quot;font-size: 22px;&quot;&gt;Product 3&lt;/font&gt;&lt;/h1&gt;&lt;div&gt;Product Semi Description&lt;/div&gt;" style="text;html=1;whiteSpace=wrap;overflow=hidden;rounded=0;" vertex="1" parent="1">
          <mxGeometry x="-762.3399999999999" y="-1042.5" width="110" height="115" as="geometry" />
        </mxCell>
        <mxCell id="B_CpDAsh1I-Uy5bGZGsl-135" value="&lt;h1 style=&quot;margin-top: 0px;&quot;&gt;&lt;font style=&quot;font-size: 22px;&quot;&gt;Product 2&lt;/font&gt;&lt;/h1&gt;&lt;div&gt;Product Semi Description&lt;/div&gt;" style="text;html=1;whiteSpace=wrap;overflow=hidden;rounded=0;" vertex="1" parent="1">
          <mxGeometry x="-902.3399999999999" y="-1042.5" width="110" height="115" as="geometry" />
        </mxCell>
        <mxCell id="B_CpDAsh1I-Uy5bGZGsl-136" value="" style="rounded=1;whiteSpace=wrap;html=1;" vertex="1" parent="1">
          <mxGeometry x="-1097.34" y="-810" width="630" height="380" as="geometry" />
        </mxCell>
        <mxCell id="B_CpDAsh1I-Uy5bGZGsl-137" value="&lt;font style=&quot;&quot;&gt;&lt;b style=&quot;&quot;&gt;&lt;font style=&quot;font-size: 15px;&quot;&gt;Location&lt;/font&gt;&lt;/b&gt;&lt;span style=&quot;font-size: 16px;&quot;&gt; &lt;/span&gt;&lt;font style=&quot;font-size: 15px;&quot;&gt;&lt;b&gt;Products&lt;/b&gt;&lt;/font&gt;&lt;/font&gt;" style="text;html=1;align=center;verticalAlign=middle;whiteSpace=wrap;rounded=0;" vertex="1" parent="1">
          <mxGeometry x="-1033.84" y="-810" width="135" height="30" as="geometry" />
        </mxCell>
        <mxCell id="B_CpDAsh1I-Uy5bGZGsl-138" value="" style="rounded=1;whiteSpace=wrap;html=1;" vertex="1" parent="1">
          <mxGeometry x="-1047.34" y="-760" width="120" height="110" as="geometry" />
        </mxCell>
        <mxCell id="B_CpDAsh1I-Uy5bGZGsl-139" value="" style="rounded=1;whiteSpace=wrap;html=1;" vertex="1" parent="1">
          <mxGeometry x="-632.3399999999999" y="-600" width="120" height="120" as="geometry" />
        </mxCell>
        <mxCell id="B_CpDAsh1I-Uy5bGZGsl-140" value="" style="rounded=1;whiteSpace=wrap;html=1;" vertex="1" parent="1">
          <mxGeometry x="-777.3399999999999" y="-600" width="120" height="120" as="geometry" />
        </mxCell>
        <mxCell id="B_CpDAsh1I-Uy5bGZGsl-141" value="" style="rounded=1;whiteSpace=wrap;html=1;" vertex="1" parent="1">
          <mxGeometry x="-912.3399999999999" y="-600" width="120" height="120" as="geometry" />
        </mxCell>
        <mxCell id="B_CpDAsh1I-Uy5bGZGsl-142" value="" style="rounded=1;whiteSpace=wrap;html=1;" vertex="1" parent="1">
          <mxGeometry x="-1052.34" y="-600" width="120" height="120" as="geometry" />
        </mxCell>
        <mxCell id="B_CpDAsh1I-Uy5bGZGsl-143" value="" style="rounded=1;whiteSpace=wrap;html=1;" vertex="1" parent="1">
          <mxGeometry x="-907.3399999999999" y="-760" width="120" height="110" as="geometry" />
        </mxCell>
        <mxCell id="B_CpDAsh1I-Uy5bGZGsl-144" value="&lt;h1 style=&quot;margin-top: 0px;&quot;&gt;&lt;font style=&quot;font-size: 18px;&quot;&gt;Product Vendor Image&amp;nbsp;&amp;nbsp;&lt;/font&gt;&lt;/h1&gt;&lt;div&gt;&lt;br&gt;&lt;/div&gt;" style="text;html=1;whiteSpace=wrap;overflow=hidden;rounded=0;" vertex="1" parent="1">
          <mxGeometry x="-1042.34" y="-760" width="105" height="90" as="geometry" />
        </mxCell>
        <mxCell id="B_CpDAsh1I-Uy5bGZGsl-145" value="" style="rounded=1;whiteSpace=wrap;html=1;" vertex="1" parent="1">
          <mxGeometry x="-772.3399999999999" y="-760" width="120" height="110" as="geometry" />
        </mxCell>
        <mxCell id="B_CpDAsh1I-Uy5bGZGsl-146" value="" style="rounded=1;whiteSpace=wrap;html=1;" vertex="1" parent="1">
          <mxGeometry x="-637.3399999999999" y="-760" width="120" height="110" as="geometry" />
        </mxCell>
        <mxCell id="B_CpDAsh1I-Uy5bGZGsl-147" value="Description" style="text;html=1;align=center;verticalAlign=middle;whiteSpace=wrap;rounded=0;" vertex="1" parent="1">
          <mxGeometry x="-1042.34" y="-680" width="60" height="30" as="geometry" />
        </mxCell>
        <mxCell id="B_CpDAsh1I-Uy5bGZGsl-148" value="Description" style="text;html=1;align=center;verticalAlign=middle;whiteSpace=wrap;rounded=0;" vertex="1" parent="1">
          <mxGeometry x="-1047.34" y="-520" width="60" height="30" as="geometry" />
        </mxCell>
        <mxCell id="B_CpDAsh1I-Uy5bGZGsl-149" value="Description" style="text;html=1;align=center;verticalAlign=middle;whiteSpace=wrap;rounded=0;" vertex="1" parent="1">
          <mxGeometry x="-627.3399999999999" y="-680" width="60" height="30" as="geometry" />
        </mxCell>
        <mxCell id="B_CpDAsh1I-Uy5bGZGsl-150" value="Description" style="text;html=1;align=center;verticalAlign=middle;whiteSpace=wrap;rounded=0;" vertex="1" parent="1">
          <mxGeometry x="-764.8399999999999" y="-680" width="60" height="30" as="geometry" />
        </mxCell>
        <mxCell id="B_CpDAsh1I-Uy5bGZGsl-151" value="Description" style="text;html=1;align=center;verticalAlign=middle;whiteSpace=wrap;rounded=0;" vertex="1" parent="1">
          <mxGeometry x="-899.8399999999999" y="-680" width="60" height="30" as="geometry" />
        </mxCell>
        <mxCell id="B_CpDAsh1I-Uy5bGZGsl-152" value="Description" style="text;html=1;align=center;verticalAlign=middle;whiteSpace=wrap;rounded=0;" vertex="1" parent="1">
          <mxGeometry x="-627.3399999999999" y="-520" width="60" height="30" as="geometry" />
        </mxCell>
        <mxCell id="B_CpDAsh1I-Uy5bGZGsl-153" value="Description" style="text;html=1;align=center;verticalAlign=middle;whiteSpace=wrap;rounded=0;" vertex="1" parent="1">
          <mxGeometry x="-772.3399999999999" y="-520" width="60" height="30" as="geometry" />
        </mxCell>
        <mxCell id="B_CpDAsh1I-Uy5bGZGsl-154" value="Description" style="text;html=1;align=center;verticalAlign=middle;whiteSpace=wrap;rounded=0;" vertex="1" parent="1">
          <mxGeometry x="-907.3399999999999" y="-520" width="60" height="30" as="geometry" />
        </mxCell>
        <mxCell id="B_CpDAsh1I-Uy5bGZGsl-155" value="" style="rounded=1;whiteSpace=wrap;html=1;" vertex="1" parent="1">
          <mxGeometry x="-1052.34" y="-890" width="545" height="60" as="geometry" />
        </mxCell>
        <mxCell id="B_CpDAsh1I-Uy5bGZGsl-156" value="Current Running Offers&amp;nbsp;" style="text;html=1;align=center;verticalAlign=middle;whiteSpace=wrap;rounded=0;" vertex="1" parent="1">
          <mxGeometry x="-1033.84" y="-880" width="196.5" height="30" as="geometry" />
        </mxCell>
        <mxCell id="B_CpDAsh1I-Uy5bGZGsl-157" value="Order Again&amp;nbsp;" style="text;html=1;align=center;verticalAlign=middle;whiteSpace=wrap;rounded=0;" vertex="1" parent="1">
          <mxGeometry x="-747.3399999999999" y="-875" width="200" height="30" as="geometry" />
        </mxCell>
        <mxCell id="B_CpDAsh1I-Uy5bGZGsl-158" value="Home Page Aftter Login / Signup" style="text;html=1;align=center;verticalAlign=middle;whiteSpace=wrap;rounded=0;" vertex="1" parent="1">
          <mxGeometry x="-966.8799999999999" y="-1490" width="380" height="30" as="geometry" />
        </mxCell>
        <mxCell id="B_CpDAsh1I-Uy5bGZGsl-159" value="&lt;h1 style=&quot;margin-top: 0px;&quot;&gt;&lt;font style=&quot;font-size: 18px;&quot;&gt;Product Vendor Image&amp;nbsp;&amp;nbsp;&lt;/font&gt;&lt;/h1&gt;&lt;div&gt;&lt;br&gt;&lt;/div&gt;" style="text;html=1;whiteSpace=wrap;overflow=hidden;rounded=0;" vertex="1" parent="1">
          <mxGeometry x="-902.3399999999999" y="-765" width="105" height="90" as="geometry" />
        </mxCell>
        <mxCell id="B_CpDAsh1I-Uy5bGZGsl-160" value="&lt;h1 style=&quot;margin-top: 0px;&quot;&gt;&lt;font style=&quot;font-size: 18px;&quot;&gt;Product Vendor Image&amp;nbsp;&amp;nbsp;&lt;/font&gt;&lt;/h1&gt;&lt;div&gt;&lt;br&gt;&lt;/div&gt;" style="text;html=1;whiteSpace=wrap;overflow=hidden;rounded=0;" vertex="1" parent="1">
          <mxGeometry x="-764.8399999999999" y="-765" width="105" height="90" as="geometry" />
        </mxCell>
        <mxCell id="B_CpDAsh1I-Uy5bGZGsl-161" value="&lt;h1 style=&quot;margin-top: 0px;&quot;&gt;&lt;font style=&quot;font-size: 18px;&quot;&gt;Product Vendor Image&amp;nbsp;&amp;nbsp;&lt;/font&gt;&lt;/h1&gt;&lt;div&gt;&lt;br&gt;&lt;/div&gt;" style="text;html=1;whiteSpace=wrap;overflow=hidden;rounded=0;" vertex="1" parent="1">
          <mxGeometry x="-629.8399999999999" y="-770" width="105" height="90" as="geometry" />
        </mxCell>
        <mxCell id="B_CpDAsh1I-Uy5bGZGsl-162" value="&lt;h1 style=&quot;margin-top: 0px;&quot;&gt;&lt;font style=&quot;font-size: 18px;&quot;&gt;Product Vendor Image&amp;nbsp;&amp;nbsp;&lt;/font&gt;&lt;/h1&gt;&lt;div&gt;&lt;br&gt;&lt;/div&gt;" style="text;html=1;whiteSpace=wrap;overflow=hidden;rounded=0;" vertex="1" parent="1">
          <mxGeometry x="-1044.84" y="-610" width="105" height="90" as="geometry" />
        </mxCell>
        <mxCell id="B_CpDAsh1I-Uy5bGZGsl-163" value="&lt;h1 style=&quot;margin-top: 0px;&quot;&gt;&lt;font style=&quot;font-size: 18px;&quot;&gt;Product Vendor Image&amp;nbsp;&amp;nbsp;&lt;/font&gt;&lt;/h1&gt;&lt;div&gt;&lt;br&gt;&lt;/div&gt;" style="text;html=1;whiteSpace=wrap;overflow=hidden;rounded=0;" vertex="1" parent="1">
          <mxGeometry x="-627.3399999999999" y="-610" width="105" height="90" as="geometry" />
        </mxCell>
        <mxCell id="B_CpDAsh1I-Uy5bGZGsl-164" value="&lt;h1 style=&quot;margin-top: 0px;&quot;&gt;&lt;font style=&quot;font-size: 18px;&quot;&gt;Product Vendor Image&amp;nbsp;&amp;nbsp;&lt;/font&gt;&lt;/h1&gt;&lt;div&gt;&lt;br&gt;&lt;/div&gt;" style="text;html=1;whiteSpace=wrap;overflow=hidden;rounded=0;" vertex="1" parent="1">
          <mxGeometry x="-772.3399999999999" y="-610" width="105" height="90" as="geometry" />
        </mxCell>
        <mxCell id="B_CpDAsh1I-Uy5bGZGsl-165" value="&lt;h1 style=&quot;margin-top: 0px;&quot;&gt;&lt;font style=&quot;font-size: 18px;&quot;&gt;Product Vendor Image&amp;nbsp;&amp;nbsp;&lt;/font&gt;&lt;/h1&gt;&lt;div&gt;&lt;br&gt;&lt;/div&gt;" style="text;html=1;whiteSpace=wrap;overflow=hidden;rounded=0;" vertex="1" parent="1">
          <mxGeometry x="-907.3399999999999" y="-610" width="105" height="90" as="geometry" />
        </mxCell>
        <mxCell id="B_CpDAsh1I-Uy5bGZGsl-173" value="" style="rounded=0;whiteSpace=wrap;html=1;rotation=-90;" vertex="1" parent="1">
          <mxGeometry x="-100.00000000000011" y="-1236.73" width="1013.75" height="687.19" as="geometry" />
        </mxCell>
        <mxCell id="B_CpDAsh1I-Uy5bGZGsl-174" value="&lt;font style=&quot;font-size: 18px;&quot;&gt;Address of current Locality of User&lt;/font&gt;" style="rounded=0;whiteSpace=wrap;html=1;strokeWidth=2;" vertex="1" parent="1">
          <mxGeometry x="76.40999999999985" y="-1350" width="280" height="50" as="geometry" />
        </mxCell>
        <mxCell id="B_CpDAsh1I-Uy5bGZGsl-175" value="&lt;font style=&quot;font-size: 14px;&quot;&gt;Search For Services And Products Nearby&lt;/font&gt;" style="rounded=0;whiteSpace=wrap;html=1;" vertex="1" parent="1">
          <mxGeometry x="376.40999999999985" y="-1350" width="190" height="50" as="geometry" />
        </mxCell>
        <mxCell id="B_CpDAsh1I-Uy5bGZGsl-176" value="&lt;font style=&quot;font-size: 18px;&quot;&gt;Profile Icon&lt;/font&gt;" style="ellipse;whiteSpace=wrap;html=1;" vertex="1" parent="1">
          <mxGeometry x="596.4099999999999" y="-1365" width="120" height="95" as="geometry" />
        </mxCell>
        <mxCell id="B_CpDAsh1I-Uy5bGZGsl-177" value="&lt;font style=&quot;font-size: 21px;&quot;&gt;Top Products&amp;nbsp; &amp;nbsp; &amp;nbsp; &amp;nbsp; &amp;nbsp; &amp;nbsp; &amp;nbsp; &amp;nbsp; &amp;nbsp; &amp;nbsp; &amp;nbsp; &amp;nbsp; &amp;nbsp; &amp;nbsp; &amp;nbsp; &amp;nbsp; &amp;nbsp; &amp;nbsp; &amp;nbsp; &amp;nbsp; &amp;nbsp; &amp;nbsp; &amp;nbsp; &amp;nbsp; &amp;nbsp; &amp;nbsp; &amp;nbsp; &amp;nbsp; &amp;nbsp;&lt;b&gt;&lt;u&gt;Top Services&lt;/u&gt;&lt;/b&gt;&lt;/font&gt;" style="rounded=1;whiteSpace=wrap;html=1;" vertex="1" parent="1">
          <mxGeometry x="108.86999999999989" y="-1250" width="596" height="60" as="geometry" />
        </mxCell>
        <mxCell id="B_CpDAsh1I-Uy5bGZGsl-178" value="" style="rounded=1;whiteSpace=wrap;html=1;align=left;" vertex="1" parent="1">
          <mxGeometry x="101.41999999999985" y="-1140" width="599.99" height="270" as="geometry" />
        </mxCell>
        <mxCell id="B_CpDAsh1I-Uy5bGZGsl-179" value="&lt;font style=&quot;font-size: 22px;&quot;&gt;List of Top Services&lt;/font&gt;" style="text;html=1;align=center;verticalAlign=middle;whiteSpace=wrap;rounded=0;" vertex="1" parent="1">
          <mxGeometry x="136.40999999999985" y="-1090" width="540" height="30" as="geometry" />
        </mxCell>
        <mxCell id="B_CpDAsh1I-Uy5bGZGsl-180" value="" style="rounded=1;whiteSpace=wrap;html=1;" vertex="1" parent="1">
          <mxGeometry x="136.40999999999985" y="-1020" width="120" height="130" as="geometry" />
        </mxCell>
        <mxCell id="B_CpDAsh1I-Uy5bGZGsl-181" value="" style="rounded=1;whiteSpace=wrap;html=1;" vertex="1" parent="1">
          <mxGeometry x="556.4099999999999" y="-1020" width="120" height="130" as="geometry" />
        </mxCell>
        <mxCell id="B_CpDAsh1I-Uy5bGZGsl-182" value="" style="rounded=1;whiteSpace=wrap;html=1;" vertex="1" parent="1">
          <mxGeometry x="416.40999999999985" y="-1020" width="120" height="130" as="geometry" />
        </mxCell>
        <mxCell id="B_CpDAsh1I-Uy5bGZGsl-183" value="" style="rounded=1;whiteSpace=wrap;html=1;" vertex="1" parent="1">
          <mxGeometry x="276.40999999999985" y="-1020" width="120" height="130" as="geometry" />
        </mxCell>
        <mxCell id="B_CpDAsh1I-Uy5bGZGsl-184" value="&lt;h1 style=&quot;margin-top: 0px;&quot;&gt;&lt;font style=&quot;font-size: 22px;&quot;&gt;Service 1&lt;/font&gt;&lt;/h1&gt;&lt;div&gt;Service Semi Description&lt;/div&gt;" style="text;html=1;whiteSpace=wrap;overflow=hidden;rounded=0;" vertex="1" parent="1">
          <mxGeometry x="141.40999999999985" y="-1015" width="110" height="115" as="geometry" />
        </mxCell>
        <mxCell id="B_CpDAsh1I-Uy5bGZGsl-418" style="edgeStyle=orthogonalEdgeStyle;rounded=0;orthogonalLoop=1;jettySize=auto;html=1;exitX=1;exitY=0.5;exitDx=0;exitDy=0;" edge="1" parent="1" source="B_CpDAsh1I-Uy5bGZGsl-185" target="B_CpDAsh1I-Uy5bGZGsl-251">
          <mxGeometry relative="1" as="geometry">
            <Array as="points">
              <mxPoint x="1220" y="-958" />
              <mxPoint x="1220" y="-300" />
              <mxPoint x="421" y="-300" />
            </Array>
          </mxGeometry>
        </mxCell>
        <mxCell id="B_CpDAsh1I-Uy5bGZGsl-185" value="&lt;h1 style=&quot;margin-top: 0px;&quot;&gt;&lt;font style=&quot;font-size: 22px;&quot;&gt;Service 4&lt;/font&gt;&lt;/h1&gt;&lt;div&gt;&amp;nbsp;Service Semi&amp;nbsp; &amp;nbsp;Description&lt;/div&gt;" style="text;html=1;whiteSpace=wrap;overflow=hidden;rounded=0;" vertex="1" parent="1">
          <mxGeometry x="556.4099999999999" y="-1015" width="110" height="115" as="geometry" />
        </mxCell>
        <mxCell id="B_CpDAsh1I-Uy5bGZGsl-186" value="&lt;h1 style=&quot;margin-top: 0px;&quot;&gt;&lt;font style=&quot;font-size: 22px;&quot;&gt;Service 3&lt;/font&gt;&lt;/h1&gt;&lt;div&gt;Service Semi Description&lt;/div&gt;" style="text;html=1;whiteSpace=wrap;overflow=hidden;rounded=0;" vertex="1" parent="1">
          <mxGeometry x="421.40999999999985" y="-1012.5" width="110" height="115" as="geometry" />
        </mxCell>
        <mxCell id="B_CpDAsh1I-Uy5bGZGsl-187" value="&lt;h1 style=&quot;margin-top: 0px;&quot;&gt;&lt;font style=&quot;font-size: 22px;&quot;&gt;Service 2&lt;/font&gt;&lt;/h1&gt;&lt;div&gt;Service Semi Description&lt;/div&gt;" style="text;html=1;whiteSpace=wrap;overflow=hidden;rounded=0;" vertex="1" parent="1">
          <mxGeometry x="281.40999999999985" y="-1012.5" width="110" height="115" as="geometry" />
        </mxCell>
        <mxCell id="B_CpDAsh1I-Uy5bGZGsl-188" value="" style="rounded=1;whiteSpace=wrap;html=1;" vertex="1" parent="1">
          <mxGeometry x="86.40999999999985" y="-780" width="630" height="380" as="geometry" />
        </mxCell>
        <mxCell id="B_CpDAsh1I-Uy5bGZGsl-189" value="&lt;font style=&quot;&quot;&gt;&lt;b style=&quot;&quot;&gt;&lt;font style=&quot;font-size: 15px;&quot;&gt;Location&lt;/font&gt;&lt;/b&gt;&lt;span style=&quot;font-size: 16px;&quot;&gt; &lt;/span&gt;&lt;font style=&quot;font-size: 15px;&quot;&gt;&lt;b&gt;Products&lt;/b&gt;&lt;/font&gt;&lt;/font&gt;" style="text;html=1;align=center;verticalAlign=middle;whiteSpace=wrap;rounded=0;" vertex="1" parent="1">
          <mxGeometry x="149.90999999999985" y="-780" width="135" height="30" as="geometry" />
        </mxCell>
        <mxCell id="B_CpDAsh1I-Uy5bGZGsl-190" value="" style="rounded=1;whiteSpace=wrap;html=1;" vertex="1" parent="1">
          <mxGeometry x="136.40999999999985" y="-730" width="120" height="110" as="geometry" />
        </mxCell>
        <mxCell id="B_CpDAsh1I-Uy5bGZGsl-191" value="" style="rounded=1;whiteSpace=wrap;html=1;" vertex="1" parent="1">
          <mxGeometry x="551.4099999999999" y="-570" width="120" height="120" as="geometry" />
        </mxCell>
        <mxCell id="B_CpDAsh1I-Uy5bGZGsl-192" value="" style="rounded=1;whiteSpace=wrap;html=1;" vertex="1" parent="1">
          <mxGeometry x="406.40999999999985" y="-570" width="120" height="120" as="geometry" />
        </mxCell>
        <mxCell id="B_CpDAsh1I-Uy5bGZGsl-193" value="" style="rounded=1;whiteSpace=wrap;html=1;" vertex="1" parent="1">
          <mxGeometry x="271.40999999999985" y="-570" width="120" height="120" as="geometry" />
        </mxCell>
        <mxCell id="B_CpDAsh1I-Uy5bGZGsl-194" value="" style="rounded=1;whiteSpace=wrap;html=1;" vertex="1" parent="1">
          <mxGeometry x="131.40999999999985" y="-570" width="120" height="120" as="geometry" />
        </mxCell>
        <mxCell id="B_CpDAsh1I-Uy5bGZGsl-195" value="" style="rounded=1;whiteSpace=wrap;html=1;" vertex="1" parent="1">
          <mxGeometry x="276.40999999999985" y="-730" width="120" height="110" as="geometry" />
        </mxCell>
        <mxCell id="B_CpDAsh1I-Uy5bGZGsl-196" value="&lt;h1 style=&quot;margin-top: 0px;&quot;&gt;&lt;font style=&quot;font-size: 18px;&quot;&gt;Service Provider Image&amp;nbsp;&amp;nbsp;&lt;/font&gt;&lt;/h1&gt;&lt;div&gt;&lt;br&gt;&lt;/div&gt;" style="text;html=1;whiteSpace=wrap;overflow=hidden;rounded=0;" vertex="1" parent="1">
          <mxGeometry x="141.40999999999985" y="-730" width="105" height="100" as="geometry" />
        </mxCell>
        <mxCell id="B_CpDAsh1I-Uy5bGZGsl-197" value="&lt;h1 style=&quot;margin-top: 0px;&quot;&gt;&lt;font style=&quot;font-size: 18px;&quot;&gt;Service Provider Image&amp;nbsp;&amp;nbsp;&lt;/font&gt;&lt;/h1&gt;&lt;div&gt;&lt;br&gt;&lt;/div&gt;" style="text;html=1;whiteSpace=wrap;overflow=hidden;rounded=0;" vertex="1" parent="1">
          <mxGeometry x="136.40999999999985" y="-570" width="100" height="100" as="geometry" />
        </mxCell>
        <mxCell id="B_CpDAsh1I-Uy5bGZGsl-198" value="&lt;h1 style=&quot;margin-top: 0px;&quot;&gt;&lt;font style=&quot;font-size: 18px;&quot;&gt;Service Provider Image&amp;nbsp;&amp;nbsp;&lt;/font&gt;&lt;/h1&gt;&lt;div&gt;&lt;br&gt;&lt;/div&gt;" style="text;html=1;whiteSpace=wrap;overflow=hidden;rounded=0;" vertex="1" parent="1">
          <mxGeometry x="286.40999999999985" y="-740" width="100" height="130" as="geometry" />
        </mxCell>
        <mxCell id="B_CpDAsh1I-Uy5bGZGsl-199" value="" style="rounded=1;whiteSpace=wrap;html=1;" vertex="1" parent="1">
          <mxGeometry x="411.40999999999985" y="-730" width="120" height="110" as="geometry" />
        </mxCell>
        <mxCell id="B_CpDAsh1I-Uy5bGZGsl-200" value="&lt;h1 style=&quot;margin-top: 0px;&quot;&gt;&lt;font style=&quot;font-size: 18px;&quot;&gt;Service Provider Image&amp;nbsp;&amp;nbsp;&lt;/font&gt;&lt;/h1&gt;&lt;div&gt;&lt;br&gt;&lt;/div&gt;" style="text;html=1;whiteSpace=wrap;overflow=hidden;rounded=0;" vertex="1" parent="1">
          <mxGeometry x="421.40999999999985" y="-740" width="105" height="100" as="geometry" />
        </mxCell>
        <mxCell id="B_CpDAsh1I-Uy5bGZGsl-201" value="" style="rounded=1;whiteSpace=wrap;html=1;" vertex="1" parent="1">
          <mxGeometry x="546.4099999999999" y="-730" width="120" height="110" as="geometry" />
        </mxCell>
        <mxCell id="B_CpDAsh1I-Uy5bGZGsl-202" value="&lt;h1 style=&quot;margin-top: 0px;&quot;&gt;&lt;font style=&quot;font-size: 18px;&quot;&gt;Service Provider Image&amp;nbsp;&amp;nbsp;&lt;/font&gt;&lt;/h1&gt;&lt;div&gt;&lt;br&gt;&lt;/div&gt;" style="text;html=1;whiteSpace=wrap;overflow=hidden;rounded=0;" vertex="1" parent="1">
          <mxGeometry x="551.4099999999999" y="-730" width="105" height="100" as="geometry" />
        </mxCell>
        <mxCell id="B_CpDAsh1I-Uy5bGZGsl-203" value="&lt;h1 style=&quot;margin-top: 0px;&quot;&gt;&lt;font style=&quot;font-size: 18px;&quot;&gt;Service Provider Image&amp;nbsp;&amp;nbsp;&lt;/font&gt;&lt;/h1&gt;&lt;div&gt;&lt;br&gt;&lt;/div&gt;" style="text;html=1;whiteSpace=wrap;overflow=hidden;rounded=0;" vertex="1" parent="1">
          <mxGeometry x="561.4099999999999" y="-570" width="105" height="100" as="geometry" />
        </mxCell>
        <mxCell id="B_CpDAsh1I-Uy5bGZGsl-204" value="&lt;h1 style=&quot;margin-top: 0px;&quot;&gt;&lt;font style=&quot;font-size: 18px;&quot;&gt;Service Provider Image&amp;nbsp;&amp;nbsp;&lt;/font&gt;&lt;/h1&gt;&lt;div&gt;&lt;br&gt;&lt;/div&gt;" style="text;html=1;whiteSpace=wrap;overflow=hidden;rounded=0;" vertex="1" parent="1">
          <mxGeometry x="418.90999999999985" y="-570" width="105" height="90" as="geometry" />
        </mxCell>
        <mxCell id="B_CpDAsh1I-Uy5bGZGsl-205" value="&lt;h1 style=&quot;margin-top: 0px;&quot;&gt;&lt;font style=&quot;font-size: 18px;&quot;&gt;Service Provider Image&amp;nbsp;&amp;nbsp;&lt;/font&gt;&lt;/h1&gt;&lt;div&gt;&lt;br&gt;&lt;/div&gt;" style="text;html=1;whiteSpace=wrap;overflow=hidden;rounded=0;" vertex="1" parent="1">
          <mxGeometry x="281.40999999999985" y="-570" width="105" height="90" as="geometry" />
        </mxCell>
        <mxCell id="B_CpDAsh1I-Uy5bGZGsl-206" value="Description" style="text;html=1;align=center;verticalAlign=middle;whiteSpace=wrap;rounded=0;" vertex="1" parent="1">
          <mxGeometry x="141.40999999999985" y="-650" width="60" height="30" as="geometry" />
        </mxCell>
        <mxCell id="B_CpDAsh1I-Uy5bGZGsl-207" value="Description" style="text;html=1;align=center;verticalAlign=middle;whiteSpace=wrap;rounded=0;" vertex="1" parent="1">
          <mxGeometry x="149.90999999999985" y="-480" width="60" height="30" as="geometry" />
        </mxCell>
        <mxCell id="B_CpDAsh1I-Uy5bGZGsl-208" value="Description" style="text;html=1;align=center;verticalAlign=middle;whiteSpace=wrap;rounded=0;" vertex="1" parent="1">
          <mxGeometry x="556.4099999999999" y="-640" width="60" height="30" as="geometry" />
        </mxCell>
        <mxCell id="B_CpDAsh1I-Uy5bGZGsl-209" value="Description" style="text;html=1;align=center;verticalAlign=middle;whiteSpace=wrap;rounded=0;" vertex="1" parent="1">
          <mxGeometry x="418.90999999999985" y="-650" width="60" height="30" as="geometry" />
        </mxCell>
        <mxCell id="B_CpDAsh1I-Uy5bGZGsl-210" value="Description" style="text;html=1;align=center;verticalAlign=middle;whiteSpace=wrap;rounded=0;" vertex="1" parent="1">
          <mxGeometry x="284.90999999999985" y="-650" width="60" height="30" as="geometry" />
        </mxCell>
        <mxCell id="B_CpDAsh1I-Uy5bGZGsl-211" value="Description" style="text;html=1;align=center;verticalAlign=middle;whiteSpace=wrap;rounded=0;" vertex="1" parent="1">
          <mxGeometry x="576.4099999999999" y="-480" width="60" height="30" as="geometry" />
        </mxCell>
        <mxCell id="B_CpDAsh1I-Uy5bGZGsl-212" value="Description" style="text;html=1;align=center;verticalAlign=middle;whiteSpace=wrap;rounded=0;" vertex="1" parent="1">
          <mxGeometry x="426.40999999999985" y="-480" width="60" height="30" as="geometry" />
        </mxCell>
        <mxCell id="B_CpDAsh1I-Uy5bGZGsl-213" value="Description" style="text;html=1;align=center;verticalAlign=middle;whiteSpace=wrap;rounded=0;" vertex="1" parent="1">
          <mxGeometry x="286.40999999999985" y="-480" width="60" height="30" as="geometry" />
        </mxCell>
        <mxCell id="B_CpDAsh1I-Uy5bGZGsl-214" value="" style="rounded=1;whiteSpace=wrap;html=1;" vertex="1" parent="1">
          <mxGeometry x="131.40999999999985" y="-860" width="545" height="60" as="geometry" />
        </mxCell>
        <mxCell id="B_CpDAsh1I-Uy5bGZGsl-215" value="Current Running Offers&amp;nbsp;" style="text;html=1;align=center;verticalAlign=middle;whiteSpace=wrap;rounded=0;" vertex="1" parent="1">
          <mxGeometry x="149.90999999999985" y="-850" width="196.5" height="30" as="geometry" />
        </mxCell>
        <mxCell id="B_CpDAsh1I-Uy5bGZGsl-216" value="Order Again&amp;nbsp;" style="text;html=1;align=center;verticalAlign=middle;whiteSpace=wrap;rounded=0;" vertex="1" parent="1">
          <mxGeometry x="436.40999999999985" y="-845" width="200" height="30" as="geometry" />
        </mxCell>
        <mxCell id="B_CpDAsh1I-Uy5bGZGsl-217" value="Home Page Aftter Login / Signup" style="text;html=1;align=center;verticalAlign=middle;whiteSpace=wrap;rounded=0;" vertex="1" parent="1">
          <mxGeometry x="216.8699999999999" y="-1460" width="380" height="30" as="geometry" />
        </mxCell>
        <mxCell id="B_CpDAsh1I-Uy5bGZGsl-218" style="edgeStyle=orthogonalEdgeStyle;rounded=0;orthogonalLoop=1;jettySize=auto;html=1;exitX=1;exitY=0.5;exitDx=0;exitDy=0;entryX=1;entryY=0.75;entryDx=0;entryDy=0;" edge="1" parent="1" source="B_CpDAsh1I-Uy5bGZGsl-209" target="B_CpDAsh1I-Uy5bGZGsl-209">
          <mxGeometry relative="1" as="geometry" />
        </mxCell>
        <mxCell id="B_CpDAsh1I-Uy5bGZGsl-219" style="edgeStyle=orthogonalEdgeStyle;rounded=0;orthogonalLoop=1;jettySize=auto;html=1;exitX=1;exitY=0.5;exitDx=0;exitDy=0;entryX=1;entryY=0;entryDx=0;entryDy=0;" edge="1" parent="1" source="B_CpDAsh1I-Uy5bGZGsl-210" target="B_CpDAsh1I-Uy5bGZGsl-210">
          <mxGeometry relative="1" as="geometry" />
        </mxCell>
        <mxCell id="B_CpDAsh1I-Uy5bGZGsl-220" value="" style="rounded=0;whiteSpace=wrap;html=1;rotation=-90;" vertex="1" parent="1">
          <mxGeometry x="-1299.9999999999998" y="-56.73000000000002" width="1013.75" height="687.19" as="geometry" />
        </mxCell>
        <mxCell id="B_CpDAsh1I-Uy5bGZGsl-221" value="&lt;font style=&quot;font-size: 18px;&quot;&gt;Address of current Locality of User&lt;/font&gt;" style="rounded=0;whiteSpace=wrap;html=1;strokeWidth=2;" vertex="1" parent="1">
          <mxGeometry x="-1123.59" y="-170" width="280" height="50" as="geometry" />
        </mxCell>
        <mxCell id="B_CpDAsh1I-Uy5bGZGsl-222" value="&lt;font style=&quot;font-size: 14px;&quot;&gt;Search For Services And Products Nearby&lt;/font&gt;" style="rounded=0;whiteSpace=wrap;html=1;" vertex="1" parent="1">
          <mxGeometry x="-823.5899999999999" y="-170" width="190" height="50" as="geometry" />
        </mxCell>
        <mxCell id="B_CpDAsh1I-Uy5bGZGsl-223" value="&lt;font style=&quot;font-size: 18px;&quot;&gt;Profile Icon&lt;/font&gt;" style="ellipse;whiteSpace=wrap;html=1;" vertex="1" parent="1">
          <mxGeometry x="-603.5899999999999" y="-185" width="120" height="95" as="geometry" />
        </mxCell>
        <mxCell id="B_CpDAsh1I-Uy5bGZGsl-224" value="" style="rounded=1;whiteSpace=wrap;html=1;align=left;" vertex="1" parent="1">
          <mxGeometry x="-1093.1299999999999" y="-80" width="599.99" height="790" as="geometry" />
        </mxCell>
        <mxCell id="B_CpDAsh1I-Uy5bGZGsl-225" value="" style="rounded=1;whiteSpace=wrap;html=1;" vertex="1" parent="1">
          <mxGeometry x="-1063.59" y="160" width="120" height="130" as="geometry" />
        </mxCell>
        <mxCell id="B_CpDAsh1I-Uy5bGZGsl-226" value="" style="rounded=1;whiteSpace=wrap;html=1;" vertex="1" parent="1">
          <mxGeometry x="-643.5899999999999" y="160" width="120" height="130" as="geometry" />
        </mxCell>
        <mxCell id="B_CpDAsh1I-Uy5bGZGsl-227" value="" style="rounded=1;whiteSpace=wrap;html=1;" vertex="1" parent="1">
          <mxGeometry x="-783.5899999999999" y="160" width="120" height="130" as="geometry" />
        </mxCell>
        <mxCell id="B_CpDAsh1I-Uy5bGZGsl-228" value="" style="rounded=1;whiteSpace=wrap;html=1;" vertex="1" parent="1">
          <mxGeometry x="-923.5899999999999" y="160" width="120" height="130" as="geometry" />
        </mxCell>
        <mxCell id="B_CpDAsh1I-Uy5bGZGsl-419" style="edgeStyle=orthogonalEdgeStyle;rounded=0;orthogonalLoop=1;jettySize=auto;html=1;entryX=1;entryY=0.5;entryDx=0;entryDy=0;" edge="1" parent="1" source="B_CpDAsh1I-Uy5bGZGsl-229" target="B_CpDAsh1I-Uy5bGZGsl-287">
          <mxGeometry relative="1" as="geometry" />
        </mxCell>
        <mxCell id="B_CpDAsh1I-Uy5bGZGsl-229" value="&lt;h1 style=&quot;margin-top: 0px;&quot;&gt;&lt;font style=&quot;font-size: 22px;&quot;&gt;Product 1&lt;/font&gt;&lt;/h1&gt;&lt;div&gt;Product Seller Description&lt;/div&gt;" style="text;html=1;whiteSpace=wrap;overflow=hidden;rounded=0;" vertex="1" parent="1">
          <mxGeometry x="-1058.59" y="165" width="110" height="115" as="geometry" />
        </mxCell>
        <mxCell id="B_CpDAsh1I-Uy5bGZGsl-230" value="&lt;h1 style=&quot;margin-top: 0px;&quot;&gt;&lt;font style=&quot;font-size: 22px;&quot;&gt;Product 4&lt;/font&gt;&lt;/h1&gt;&lt;div&gt;Product Seller Description&lt;/div&gt;" style="text;html=1;whiteSpace=wrap;overflow=hidden;rounded=0;" vertex="1" parent="1">
          <mxGeometry x="-643.5899999999999" y="165" width="110" height="115" as="geometry" />
        </mxCell>
        <mxCell id="B_CpDAsh1I-Uy5bGZGsl-231" value="&lt;h1 style=&quot;margin-top: 0px;&quot;&gt;&lt;font style=&quot;font-size: 22px;&quot;&gt;Product 3&lt;/font&gt;&lt;/h1&gt;&lt;div&gt;Product Seller Description&lt;/div&gt;" style="text;html=1;whiteSpace=wrap;overflow=hidden;rounded=0;" vertex="1" parent="1">
          <mxGeometry x="-778.5899999999999" y="167.5" width="110" height="115" as="geometry" />
        </mxCell>
        <mxCell id="B_CpDAsh1I-Uy5bGZGsl-232" value="&lt;h1 style=&quot;margin-top: 0px;&quot;&gt;&lt;font style=&quot;font-size: 22px;&quot;&gt;Product 2&lt;/font&gt;&lt;/h1&gt;&lt;div&gt;Product Seller Description&lt;/div&gt;" style="text;html=1;whiteSpace=wrap;overflow=hidden;rounded=0;" vertex="1" parent="1">
          <mxGeometry x="-918.5899999999999" y="167.5" width="110" height="115" as="geometry" />
        </mxCell>
        <mxCell id="B_CpDAsh1I-Uy5bGZGsl-233" value="Product List Page" style="text;html=1;align=center;verticalAlign=middle;whiteSpace=wrap;rounded=0;" vertex="1" parent="1">
          <mxGeometry x="-983.1299999999999" y="-280" width="380" height="30" as="geometry" />
        </mxCell>
        <mxCell id="B_CpDAsh1I-Uy5bGZGsl-234" value="&lt;b&gt;&lt;font style=&quot;font-size: 17px;&quot;&gt;Best Result for PRODUCT_NAME&lt;/font&gt;&lt;/b&gt;" style="rounded=0;whiteSpace=wrap;html=1;" vertex="1" parent="1">
          <mxGeometry x="-1038.59" y="-30" width="455" height="60" as="geometry" />
        </mxCell>
        <mxCell id="B_CpDAsh1I-Uy5bGZGsl-235" value="" style="rounded=1;whiteSpace=wrap;html=1;" vertex="1" parent="1">
          <mxGeometry x="-1073.59" y="360" width="120" height="130" as="geometry" />
        </mxCell>
        <mxCell id="B_CpDAsh1I-Uy5bGZGsl-236" value="" style="rounded=1;whiteSpace=wrap;html=1;" vertex="1" parent="1">
          <mxGeometry x="-923.5899999999999" y="360" width="120" height="130" as="geometry" />
        </mxCell>
        <mxCell id="B_CpDAsh1I-Uy5bGZGsl-237" value="" style="rounded=1;whiteSpace=wrap;html=1;" vertex="1" parent="1">
          <mxGeometry x="-643.5899999999999" y="360" width="120" height="130" as="geometry" />
        </mxCell>
        <mxCell id="B_CpDAsh1I-Uy5bGZGsl-238" value="" style="rounded=1;whiteSpace=wrap;html=1;" vertex="1" parent="1">
          <mxGeometry x="-783.5899999999999" y="360" width="120" height="130" as="geometry" />
        </mxCell>
        <mxCell id="B_CpDAsh1I-Uy5bGZGsl-239" value="" style="rounded=1;whiteSpace=wrap;html=1;" vertex="1" parent="1">
          <mxGeometry x="-783.5899999999999" y="540" width="120" height="130" as="geometry" />
        </mxCell>
        <mxCell id="B_CpDAsh1I-Uy5bGZGsl-240" value="" style="rounded=1;whiteSpace=wrap;html=1;" vertex="1" parent="1">
          <mxGeometry x="-923.5899999999999" y="540" width="120" height="130" as="geometry" />
        </mxCell>
        <mxCell id="B_CpDAsh1I-Uy5bGZGsl-241" value="" style="rounded=1;whiteSpace=wrap;html=1;" vertex="1" parent="1">
          <mxGeometry x="-1058.59" y="540" width="120" height="130" as="geometry" />
        </mxCell>
        <mxCell id="B_CpDAsh1I-Uy5bGZGsl-242" value="" style="rounded=1;whiteSpace=wrap;html=1;" vertex="1" parent="1">
          <mxGeometry x="-648.5899999999999" y="540" width="120" height="130" as="geometry" />
        </mxCell>
        <mxCell id="B_CpDAsh1I-Uy5bGZGsl-243" value="&lt;h1 style=&quot;margin-top: 0px;&quot;&gt;&lt;font style=&quot;font-size: 22px;&quot;&gt;Product 8&lt;/font&gt;&lt;/h1&gt;&lt;div&gt;Product Seller Description&lt;/div&gt;" style="text;html=1;whiteSpace=wrap;overflow=hidden;rounded=0;" vertex="1" parent="1">
          <mxGeometry x="-638.5899999999999" y="360" width="110" height="115" as="geometry" />
        </mxCell>
        <mxCell id="B_CpDAsh1I-Uy5bGZGsl-244" value="&lt;h1 style=&quot;margin-top: 0px;&quot;&gt;&lt;font style=&quot;font-size: 22px;&quot;&gt;Product 7&lt;/font&gt;&lt;/h1&gt;&lt;div&gt;Product Seller Description&lt;/div&gt;" style="text;html=1;whiteSpace=wrap;overflow=hidden;rounded=0;" vertex="1" parent="1">
          <mxGeometry x="-783.5899999999999" y="360" width="110" height="105" as="geometry" />
        </mxCell>
        <mxCell id="B_CpDAsh1I-Uy5bGZGsl-245" value="&lt;h1 style=&quot;margin-top: 0px;&quot;&gt;&lt;font style=&quot;font-size: 22px;&quot;&gt;Product 6&lt;/font&gt;&lt;/h1&gt;&lt;div&gt;Product Seller Description&lt;/div&gt;" style="text;html=1;whiteSpace=wrap;overflow=hidden;rounded=0;" vertex="1" parent="1">
          <mxGeometry x="-918.5899999999999" y="360" width="110" height="115" as="geometry" />
        </mxCell>
        <mxCell id="B_CpDAsh1I-Uy5bGZGsl-246" value="&lt;h1 style=&quot;margin-top: 0px;&quot;&gt;&lt;font style=&quot;font-size: 22px;&quot;&gt;Product 5&lt;/font&gt;&lt;/h1&gt;&lt;div&gt;Product Seller Description&lt;/div&gt;" style="text;html=1;whiteSpace=wrap;overflow=hidden;rounded=0;" vertex="1" parent="1">
          <mxGeometry x="-1068.59" y="367.5" width="110" height="115" as="geometry" />
        </mxCell>
        <mxCell id="B_CpDAsh1I-Uy5bGZGsl-247" value="&lt;h1 style=&quot;margin-top: 0px;&quot;&gt;&lt;font style=&quot;font-size: 22px;&quot;&gt;Product 12&lt;/font&gt;&lt;/h1&gt;&lt;div&gt;Product Seller Description&lt;/div&gt;" style="text;html=1;whiteSpace=wrap;overflow=hidden;rounded=0;" vertex="1" parent="1">
          <mxGeometry x="-643.5899999999999" y="555" width="110" height="115" as="geometry" />
        </mxCell>
        <mxCell id="B_CpDAsh1I-Uy5bGZGsl-248" value="&lt;h1 style=&quot;margin-top: 0px;&quot;&gt;&lt;font style=&quot;font-size: 22px;&quot;&gt;Product 11&lt;/font&gt;&lt;/h1&gt;&lt;div&gt;Product Seller Description&lt;/div&gt;" style="text;html=1;whiteSpace=wrap;overflow=hidden;rounded=0;" vertex="1" parent="1">
          <mxGeometry x="-773.5899999999999" y="547.5" width="110" height="115" as="geometry" />
        </mxCell>
        <mxCell id="B_CpDAsh1I-Uy5bGZGsl-249" value="&lt;h1 style=&quot;margin-top: 0px;&quot;&gt;&lt;font style=&quot;font-size: 22px;&quot;&gt;Product 10&lt;/font&gt;&lt;/h1&gt;&lt;div&gt;Product Seller Description&lt;/div&gt;" style="text;html=1;whiteSpace=wrap;overflow=hidden;rounded=0;" vertex="1" parent="1">
          <mxGeometry x="-918.5899999999999" y="540" width="110" height="115" as="geometry" />
        </mxCell>
        <mxCell id="B_CpDAsh1I-Uy5bGZGsl-250" value="&lt;h1 style=&quot;margin-top: 0px;&quot;&gt;&lt;font style=&quot;font-size: 22px;&quot;&gt;Product 9&lt;/font&gt;&lt;/h1&gt;&lt;div&gt;Product Seller Description&lt;/div&gt;" style="text;html=1;whiteSpace=wrap;overflow=hidden;rounded=0;" vertex="1" parent="1">
          <mxGeometry x="-1053.59" y="547.5" width="110" height="115" as="geometry" />
        </mxCell>
        <mxCell id="B_CpDAsh1I-Uy5bGZGsl-251" value="" style="rounded=0;whiteSpace=wrap;html=1;rotation=-90;" vertex="1" parent="1">
          <mxGeometry x="-86.40999999999985" y="-11.730000000000018" width="1013.75" height="687.19" as="geometry" />
        </mxCell>
        <mxCell id="B_CpDAsh1I-Uy5bGZGsl-252" value="&lt;font style=&quot;font-size: 18px;&quot;&gt;Address of current Locality of User&lt;/font&gt;" style="rounded=0;whiteSpace=wrap;html=1;strokeWidth=2;" vertex="1" parent="1">
          <mxGeometry x="90" y="-125" width="280" height="50" as="geometry" />
        </mxCell>
        <mxCell id="B_CpDAsh1I-Uy5bGZGsl-253" value="&lt;font style=&quot;font-size: 14px;&quot;&gt;Search For Services And Products Nearby&lt;/font&gt;" style="rounded=0;whiteSpace=wrap;html=1;" vertex="1" parent="1">
          <mxGeometry x="390" y="-125" width="190" height="50" as="geometry" />
        </mxCell>
        <mxCell id="B_CpDAsh1I-Uy5bGZGsl-254" value="&lt;font style=&quot;font-size: 18px;&quot;&gt;Profile Icon&lt;/font&gt;" style="ellipse;whiteSpace=wrap;html=1;" vertex="1" parent="1">
          <mxGeometry x="610" y="-140" width="120" height="95" as="geometry" />
        </mxCell>
        <mxCell id="B_CpDAsh1I-Uy5bGZGsl-255" value="" style="rounded=1;whiteSpace=wrap;html=1;align=left;" vertex="1" parent="1">
          <mxGeometry x="120.46000000000004" y="-35" width="599.99" height="790" as="geometry" />
        </mxCell>
        <mxCell id="B_CpDAsh1I-Uy5bGZGsl-256" value="" style="rounded=1;whiteSpace=wrap;html=1;" vertex="1" parent="1">
          <mxGeometry x="150" y="205" width="120" height="130" as="geometry" />
        </mxCell>
        <mxCell id="B_CpDAsh1I-Uy5bGZGsl-257" value="" style="rounded=1;whiteSpace=wrap;html=1;" vertex="1" parent="1">
          <mxGeometry x="570" y="205" width="120" height="130" as="geometry" />
        </mxCell>
        <mxCell id="B_CpDAsh1I-Uy5bGZGsl-258" value="" style="rounded=1;whiteSpace=wrap;html=1;" vertex="1" parent="1">
          <mxGeometry x="430" y="205" width="120" height="130" as="geometry" />
        </mxCell>
        <mxCell id="B_CpDAsh1I-Uy5bGZGsl-259" value="" style="rounded=1;whiteSpace=wrap;html=1;" vertex="1" parent="1">
          <mxGeometry x="290" y="205" width="120" height="130" as="geometry" />
        </mxCell>
        <mxCell id="B_CpDAsh1I-Uy5bGZGsl-420" style="edgeStyle=orthogonalEdgeStyle;rounded=0;orthogonalLoop=1;jettySize=auto;html=1;" edge="1" parent="1" source="B_CpDAsh1I-Uy5bGZGsl-260" target="B_CpDAsh1I-Uy5bGZGsl-287">
          <mxGeometry relative="1" as="geometry" />
        </mxCell>
        <mxCell id="B_CpDAsh1I-Uy5bGZGsl-260" value="&lt;h1 style=&quot;margin-top: 0px;&quot;&gt;&lt;font style=&quot;font-size: 22px;&quot;&gt;Service 1&lt;/font&gt;&lt;/h1&gt;&lt;div&gt;Service Provider Description&lt;/div&gt;" style="text;html=1;whiteSpace=wrap;overflow=hidden;rounded=0;" vertex="1" parent="1">
          <mxGeometry x="155" y="210" width="110" height="115" as="geometry" />
        </mxCell>
        <mxCell id="B_CpDAsh1I-Uy5bGZGsl-261" value="Home Page Aftter Login / Signup" style="text;html=1;align=center;verticalAlign=middle;whiteSpace=wrap;rounded=0;" vertex="1" parent="1">
          <mxGeometry x="230.46000000000004" y="-235" width="380" height="30" as="geometry" />
        </mxCell>
        <mxCell id="B_CpDAsh1I-Uy5bGZGsl-262" value="&lt;b&gt;&lt;font style=&quot;font-size: 17px;&quot;&gt;Best Result for SERVICE_NAME&lt;/font&gt;&lt;/b&gt;" style="rounded=0;whiteSpace=wrap;html=1;" vertex="1" parent="1">
          <mxGeometry x="175" y="15" width="455" height="60" as="geometry" />
        </mxCell>
        <mxCell id="B_CpDAsh1I-Uy5bGZGsl-263" value="" style="rounded=1;whiteSpace=wrap;html=1;" vertex="1" parent="1">
          <mxGeometry x="140" y="405" width="120" height="130" as="geometry" />
        </mxCell>
        <mxCell id="B_CpDAsh1I-Uy5bGZGsl-264" value="" style="rounded=1;whiteSpace=wrap;html=1;" vertex="1" parent="1">
          <mxGeometry x="290" y="405" width="120" height="130" as="geometry" />
        </mxCell>
        <mxCell id="B_CpDAsh1I-Uy5bGZGsl-265" value="" style="rounded=1;whiteSpace=wrap;html=1;" vertex="1" parent="1">
          <mxGeometry x="570" y="405" width="120" height="130" as="geometry" />
        </mxCell>
        <mxCell id="B_CpDAsh1I-Uy5bGZGsl-266" value="" style="rounded=1;whiteSpace=wrap;html=1;" vertex="1" parent="1">
          <mxGeometry x="430" y="405" width="120" height="130" as="geometry" />
        </mxCell>
        <mxCell id="B_CpDAsh1I-Uy5bGZGsl-267" value="" style="rounded=1;whiteSpace=wrap;html=1;" vertex="1" parent="1">
          <mxGeometry x="430" y="585" width="120" height="130" as="geometry" />
        </mxCell>
        <mxCell id="B_CpDAsh1I-Uy5bGZGsl-268" value="" style="rounded=1;whiteSpace=wrap;html=1;" vertex="1" parent="1">
          <mxGeometry x="290" y="585" width="120" height="130" as="geometry" />
        </mxCell>
        <mxCell id="B_CpDAsh1I-Uy5bGZGsl-269" value="" style="rounded=1;whiteSpace=wrap;html=1;" vertex="1" parent="1">
          <mxGeometry x="155" y="585" width="120" height="130" as="geometry" />
        </mxCell>
        <mxCell id="B_CpDAsh1I-Uy5bGZGsl-270" value="" style="rounded=1;whiteSpace=wrap;html=1;" vertex="1" parent="1">
          <mxGeometry x="565" y="585" width="120" height="130" as="geometry" />
        </mxCell>
        <mxCell id="B_CpDAsh1I-Uy5bGZGsl-271" value="&lt;h1 style=&quot;margin-top: 0px;&quot;&gt;&lt;font style=&quot;font-size: 22px;&quot;&gt;Service 4&lt;/font&gt;&lt;/h1&gt;&lt;div&gt;Service Provider Description&lt;/div&gt;" style="text;html=1;whiteSpace=wrap;overflow=hidden;rounded=0;" vertex="1" parent="1">
          <mxGeometry x="575" y="212.5" width="110" height="115" as="geometry" />
        </mxCell>
        <mxCell id="B_CpDAsh1I-Uy5bGZGsl-272" value="&lt;h1 style=&quot;margin-top: 0px;&quot;&gt;&lt;font style=&quot;font-size: 22px;&quot;&gt;Service 3&lt;/font&gt;&lt;/h1&gt;&lt;div&gt;Service Provider Description&lt;/div&gt;" style="text;html=1;whiteSpace=wrap;overflow=hidden;rounded=0;" vertex="1" parent="1">
          <mxGeometry x="435" y="210" width="110" height="115" as="geometry" />
        </mxCell>
        <mxCell id="B_CpDAsh1I-Uy5bGZGsl-273" value="&lt;h1 style=&quot;margin-top: 0px;&quot;&gt;&lt;font style=&quot;font-size: 22px;&quot;&gt;Service 2&lt;/font&gt;&lt;/h1&gt;&lt;div&gt;Service Provider Description&lt;/div&gt;" style="text;html=1;whiteSpace=wrap;overflow=hidden;rounded=0;" vertex="1" parent="1">
          <mxGeometry x="295" y="210" width="110" height="115" as="geometry" />
        </mxCell>
        <mxCell id="B_CpDAsh1I-Uy5bGZGsl-274" value="&lt;h1 style=&quot;margin-top: 0px;&quot;&gt;&lt;font style=&quot;font-size: 22px;&quot;&gt;Service 8&lt;/font&gt;&lt;/h1&gt;&lt;div&gt;Service Provider Description&lt;/div&gt;" style="text;html=1;whiteSpace=wrap;overflow=hidden;rounded=0;" vertex="1" parent="1">
          <mxGeometry x="575" y="412.5" width="110" height="115" as="geometry" />
        </mxCell>
        <mxCell id="B_CpDAsh1I-Uy5bGZGsl-275" value="&lt;h1 style=&quot;margin-top: 0px;&quot;&gt;&lt;font style=&quot;font-size: 22px;&quot;&gt;Service 7&lt;/font&gt;&lt;/h1&gt;&lt;div&gt;Service Provider Description&lt;/div&gt;" style="text;html=1;whiteSpace=wrap;overflow=hidden;rounded=0;" vertex="1" parent="1">
          <mxGeometry x="430" y="412.5" width="110" height="115" as="geometry" />
        </mxCell>
        <mxCell id="B_CpDAsh1I-Uy5bGZGsl-276" value="&lt;h1 style=&quot;margin-top: 0px;&quot;&gt;&lt;font style=&quot;font-size: 22px;&quot;&gt;Service 6&lt;/font&gt;&lt;/h1&gt;&lt;div&gt;Service Provider Description&lt;/div&gt;" style="text;html=1;whiteSpace=wrap;overflow=hidden;rounded=0;" vertex="1" parent="1">
          <mxGeometry x="300" y="405" width="110" height="115" as="geometry" />
        </mxCell>
        <mxCell id="B_CpDAsh1I-Uy5bGZGsl-277" value="&lt;h1 style=&quot;margin-top: 0px;&quot;&gt;&lt;font style=&quot;font-size: 22px;&quot;&gt;Service 5&lt;/font&gt;&lt;/h1&gt;&lt;div&gt;Service Provider Description&lt;/div&gt;" style="text;html=1;whiteSpace=wrap;overflow=hidden;rounded=0;" vertex="1" parent="1">
          <mxGeometry x="150" y="412.5" width="110" height="115" as="geometry" />
        </mxCell>
        <mxCell id="B_CpDAsh1I-Uy5bGZGsl-278" value="&lt;h1 style=&quot;margin-top: 0px;&quot;&gt;&lt;font style=&quot;font-size: 22px;&quot;&gt;Service 12&lt;/font&gt;&lt;/h1&gt;&lt;div&gt;Service Provider Description&lt;/div&gt;" style="text;html=1;whiteSpace=wrap;overflow=hidden;rounded=0;" vertex="1" parent="1">
          <mxGeometry x="575" y="585" width="110" height="115" as="geometry" />
        </mxCell>
        <mxCell id="B_CpDAsh1I-Uy5bGZGsl-279" value="&lt;h1 style=&quot;margin-top: 0px;&quot;&gt;&lt;font style=&quot;font-size: 22px;&quot;&gt;Service 11&lt;/font&gt;&lt;/h1&gt;&lt;div&gt;Service Provider Description&lt;/div&gt;" style="text;html=1;whiteSpace=wrap;overflow=hidden;rounded=0;" vertex="1" parent="1">
          <mxGeometry x="430" y="592.5" width="110" height="115" as="geometry" />
        </mxCell>
        <mxCell id="B_CpDAsh1I-Uy5bGZGsl-280" value="&lt;h1 style=&quot;margin-top: 0px;&quot;&gt;&lt;font style=&quot;font-size: 22px;&quot;&gt;Service 10&lt;/font&gt;&lt;/h1&gt;&lt;div&gt;Service Provider Description&lt;/div&gt;" style="text;html=1;whiteSpace=wrap;overflow=hidden;rounded=0;" vertex="1" parent="1">
          <mxGeometry x="295" y="592.5" width="110" height="115" as="geometry" />
        </mxCell>
        <mxCell id="B_CpDAsh1I-Uy5bGZGsl-281" value="&lt;h1 style=&quot;margin-top: 0px;&quot;&gt;&lt;font style=&quot;font-size: 22px;&quot;&gt;Service 9&lt;/font&gt;&lt;/h1&gt;&lt;div&gt;Service Provider Description&lt;/div&gt;" style="text;html=1;whiteSpace=wrap;overflow=hidden;rounded=0;" vertex="1" parent="1">
          <mxGeometry x="165" y="592.5" width="110" height="115" as="geometry" />
        </mxCell>
        <mxCell id="B_CpDAsh1I-Uy5bGZGsl-282" value="" style="endArrow=classic;html=1;rounded=0;" edge="1" parent="1" source="B_CpDAsh1I-Uy5bGZGsl-260" target="B_CpDAsh1I-Uy5bGZGsl-283">
          <mxGeometry width="50" height="50" relative="1" as="geometry">
            <mxPoint x="460" y="255" as="sourcePoint" />
            <mxPoint x="10" y="315" as="targetPoint" />
          </mxGeometry>
        </mxCell>
        <mxCell id="B_CpDAsh1I-Uy5bGZGsl-283" value="" style="rounded=1;whiteSpace=wrap;html=1;" vertex="1" parent="1">
          <mxGeometry x="-100" y="285" width="170" height="230" as="geometry" />
        </mxCell>
        <mxCell id="B_CpDAsh1I-Uy5bGZGsl-284" value="Service&#39;s Unique Name" style="rounded=1;whiteSpace=wrap;html=1;" vertex="1" parent="1">
          <mxGeometry x="-75" y="305" width="120" height="60" as="geometry" />
        </mxCell>
        <mxCell id="B_CpDAsh1I-Uy5bGZGsl-285" value="Service Image" style="rounded=1;whiteSpace=wrap;html=1;" vertex="1" parent="1">
          <mxGeometry x="-75" y="375" width="120" height="60" as="geometry" />
        </mxCell>
        <mxCell id="B_CpDAsh1I-Uy5bGZGsl-286" value="Providers Description" style="rounded=1;whiteSpace=wrap;html=1;" vertex="1" parent="1">
          <mxGeometry x="-75" y="440" width="120" height="60" as="geometry" />
        </mxCell>
        <mxCell id="B_CpDAsh1I-Uy5bGZGsl-287" value="" style="rounded=0;whiteSpace=wrap;html=1;rotation=-90;" vertex="1" parent="1">
          <mxGeometry x="-726.1199999999997" y="1243.27" width="1013.75" height="687.19" as="geometry" />
        </mxCell>
        <mxCell id="B_CpDAsh1I-Uy5bGZGsl-288" value="&lt;font style=&quot;font-size: 18px;&quot;&gt;Address of current Locality of User&lt;/font&gt;" style="rounded=0;whiteSpace=wrap;html=1;strokeWidth=2;" vertex="1" parent="1">
          <mxGeometry x="-549.7099999999998" y="1130" width="280" height="50" as="geometry" />
        </mxCell>
        <mxCell id="B_CpDAsh1I-Uy5bGZGsl-289" value="&lt;font style=&quot;font-size: 14px;&quot;&gt;Search For Services And Products Nearby&lt;/font&gt;" style="rounded=0;whiteSpace=wrap;html=1;" vertex="1" parent="1">
          <mxGeometry x="-249.71000000000004" y="1130" width="190" height="50" as="geometry" />
        </mxCell>
        <mxCell id="B_CpDAsh1I-Uy5bGZGsl-290" value="&lt;font style=&quot;font-size: 18px;&quot;&gt;Profile Icon&lt;/font&gt;" style="ellipse;whiteSpace=wrap;html=1;" vertex="1" parent="1">
          <mxGeometry x="-29.710000000000036" y="1115" width="120" height="95" as="geometry" />
        </mxCell>
        <mxCell id="B_CpDAsh1I-Uy5bGZGsl-291" value="" style="rounded=1;whiteSpace=wrap;html=1;align=left;" vertex="1" parent="1">
          <mxGeometry x="-519.24" y="1220" width="599.99" height="850" as="geometry" />
        </mxCell>
        <mxCell id="B_CpDAsh1I-Uy5bGZGsl-292" value="Vendor Page for Product/Services" style="text;html=1;align=center;verticalAlign=middle;whiteSpace=wrap;rounded=0;" vertex="1" parent="1">
          <mxGeometry x="-409.25" y="1020" width="380" height="30" as="geometry" />
        </mxCell>
        <mxCell id="B_CpDAsh1I-Uy5bGZGsl-293" value="&lt;b&gt;&lt;font style=&quot;font-size: 22px;&quot;&gt;Vendor Name&lt;/font&gt;&lt;/b&gt;" style="rounded=1;whiteSpace=wrap;html=1;" vertex="1" parent="1">
          <mxGeometry x="-429.71000000000004" y="1270" width="430" height="90" as="geometry" />
        </mxCell>
        <mxCell id="B_CpDAsh1I-Uy5bGZGsl-294" value="Gallery Image 1" style="rounded=1;whiteSpace=wrap;html=1;" vertex="1" parent="1">
          <mxGeometry x="-484.7099999999998" y="1400" width="285" height="230" as="geometry" />
        </mxCell>
        <mxCell id="B_CpDAsh1I-Uy5bGZGsl-295" value="Gallery Image 2" style="rounded=1;whiteSpace=wrap;html=1;" vertex="1" parent="1">
          <mxGeometry x="-169.71000000000004" y="1530" width="215" height="100" as="geometry" />
        </mxCell>
        <mxCell id="B_CpDAsh1I-Uy5bGZGsl-296" value="Gallery Image 3" style="rounded=1;whiteSpace=wrap;html=1;" vertex="1" parent="1">
          <mxGeometry x="-169.71000000000004" y="1410" width="220" height="100" as="geometry" />
        </mxCell>
        <mxCell id="B_CpDAsh1I-Uy5bGZGsl-297" value="Vendor Address , Availability Status, Direction on map, Bookmark, Share." style="rounded=1;whiteSpace=wrap;html=1;" vertex="1" parent="1">
          <mxGeometry x="-474.7099999999998" y="1650" width="515" height="50" as="geometry" />
        </mxCell>
        <mxCell id="B_CpDAsh1I-Uy5bGZGsl-298" value="" style="rounded=1;whiteSpace=wrap;html=1;" vertex="1" parent="1">
          <mxGeometry x="-474.7099999999998" y="1730" width="120" height="300" as="geometry" />
        </mxCell>
        <mxCell id="B_CpDAsh1I-Uy5bGZGsl-299" value="Deals and Offers" style="text;html=1;align=center;verticalAlign=middle;whiteSpace=wrap;rounded=0;" vertex="1" parent="1">
          <mxGeometry x="-472.2099999999998" y="1760" width="115" height="30" as="geometry" />
        </mxCell>
        <mxCell id="B_CpDAsh1I-Uy5bGZGsl-300" value="Latest Products" style="text;html=1;align=center;verticalAlign=middle;whiteSpace=wrap;rounded=0;" vertex="1" parent="1">
          <mxGeometry x="-459.71000000000004" y="1790" width="90" height="20" as="geometry" />
        </mxCell>
        <mxCell id="B_CpDAsh1I-Uy5bGZGsl-301" value="Latest Services" style="text;html=1;align=center;verticalAlign=middle;whiteSpace=wrap;rounded=0;" vertex="1" parent="1">
          <mxGeometry x="-459.71000000000004" y="1820" width="90" height="20" as="geometry" />
        </mxCell>
        <mxCell id="B_CpDAsh1I-Uy5bGZGsl-302" value="Reviews" style="text;html=1;align=center;verticalAlign=middle;whiteSpace=wrap;rounded=0;" vertex="1" parent="1">
          <mxGeometry x="-459.71000000000004" y="1850" width="90" height="20" as="geometry" />
        </mxCell>
        <mxCell id="B_CpDAsh1I-Uy5bGZGsl-303" value="Most Preferred Services" style="text;html=1;align=center;verticalAlign=middle;whiteSpace=wrap;rounded=0;" vertex="1" parent="1">
          <mxGeometry x="-469.71000000000004" y="1930.46" width="110" height="20" as="geometry" />
        </mxCell>
        <mxCell id="B_CpDAsh1I-Uy5bGZGsl-304" value="Most Preferred Products" style="text;html=1;align=center;verticalAlign=middle;whiteSpace=wrap;rounded=0;" vertex="1" parent="1">
          <mxGeometry x="-469.71000000000004" y="1880.46" width="110" height="30" as="geometry" />
        </mxCell>
        <mxCell id="B_CpDAsh1I-Uy5bGZGsl-421" style="edgeStyle=orthogonalEdgeStyle;rounded=0;orthogonalLoop=1;jettySize=auto;html=1;exitX=0;exitY=0.5;exitDx=0;exitDy=0;" edge="1" parent="1" source="B_CpDAsh1I-Uy5bGZGsl-305" target="B_CpDAsh1I-Uy5bGZGsl-320">
          <mxGeometry relative="1" as="geometry" />
        </mxCell>
        <mxCell id="B_CpDAsh1I-Uy5bGZGsl-422" style="edgeStyle=orthogonalEdgeStyle;rounded=0;orthogonalLoop=1;jettySize=auto;html=1;exitX=1;exitY=0.5;exitDx=0;exitDy=0;" edge="1" parent="1" source="B_CpDAsh1I-Uy5bGZGsl-305" target="B_CpDAsh1I-Uy5bGZGsl-366">
          <mxGeometry relative="1" as="geometry" />
        </mxCell>
        <mxCell id="B_CpDAsh1I-Uy5bGZGsl-305" value="Product/Service Image" style="rounded=1;whiteSpace=wrap;html=1;" vertex="1" parent="1">
          <mxGeometry x="-339.71000000000004" y="1730" width="90" height="80" as="geometry" />
        </mxCell>
        <mxCell id="B_CpDAsh1I-Uy5bGZGsl-306" value="" style="rounded=1;whiteSpace=wrap;html=1;" vertex="1" parent="1">
          <mxGeometry x="-239.71000000000004" y="1730" width="210" height="70" as="geometry" />
        </mxCell>
        <mxCell id="B_CpDAsh1I-Uy5bGZGsl-307" value="Product/Service Name" style="text;html=1;align=center;verticalAlign=middle;whiteSpace=wrap;rounded=0;" vertex="1" parent="1">
          <mxGeometry x="-199.71000000000004" y="1730" width="90" height="30" as="geometry" />
        </mxCell>
        <mxCell id="B_CpDAsh1I-Uy5bGZGsl-308" value="Rating,Price" style="text;html=1;align=center;verticalAlign=middle;whiteSpace=wrap;rounded=0;" vertex="1" parent="1">
          <mxGeometry x="-184.71000000000004" y="1750" width="60" height="30" as="geometry" />
        </mxCell>
        <mxCell id="B_CpDAsh1I-Uy5bGZGsl-309" value="Description" style="text;html=1;align=center;verticalAlign=middle;whiteSpace=wrap;rounded=0;" vertex="1" parent="1">
          <mxGeometry x="-184.71000000000004" y="1770" width="60" height="30" as="geometry" />
        </mxCell>
        <mxCell id="B_CpDAsh1I-Uy5bGZGsl-310" value="Product/Service Image" style="rounded=1;whiteSpace=wrap;html=1;" vertex="1" parent="1">
          <mxGeometry x="-339.71000000000004" y="1845.46" width="90" height="74.54" as="geometry" />
        </mxCell>
        <mxCell id="B_CpDAsh1I-Uy5bGZGsl-311" value="Product/Service Image" style="rounded=1;whiteSpace=wrap;html=1;" vertex="1" parent="1">
          <mxGeometry x="-339.71000000000004" y="1960" width="90" height="70" as="geometry" />
        </mxCell>
        <mxCell id="B_CpDAsh1I-Uy5bGZGsl-312" value="" style="rounded=1;whiteSpace=wrap;html=1;" vertex="1" parent="1">
          <mxGeometry x="-239.71000000000004" y="1845" width="210" height="70" as="geometry" />
        </mxCell>
        <mxCell id="B_CpDAsh1I-Uy5bGZGsl-313" value="" style="rounded=1;whiteSpace=wrap;html=1;" vertex="1" parent="1">
          <mxGeometry x="-239.71000000000004" y="1960" width="210" height="70" as="geometry" />
        </mxCell>
        <mxCell id="B_CpDAsh1I-Uy5bGZGsl-314" value="Product/Service Name" style="text;html=1;align=center;verticalAlign=middle;whiteSpace=wrap;rounded=0;" vertex="1" parent="1">
          <mxGeometry x="-199.71000000000004" y="1845" width="90" height="30" as="geometry" />
        </mxCell>
        <mxCell id="B_CpDAsh1I-Uy5bGZGsl-315" value="Rating,Price" style="text;html=1;align=center;verticalAlign=middle;whiteSpace=wrap;rounded=0;" vertex="1" parent="1">
          <mxGeometry x="-184.71000000000004" y="1865" width="60" height="30" as="geometry" />
        </mxCell>
        <mxCell id="B_CpDAsh1I-Uy5bGZGsl-316" value="Description" style="text;html=1;align=center;verticalAlign=middle;whiteSpace=wrap;rounded=0;" vertex="1" parent="1">
          <mxGeometry x="-184.71000000000004" y="1885.46" width="60" height="30" as="geometry" />
        </mxCell>
        <mxCell id="B_CpDAsh1I-Uy5bGZGsl-317" value="Product/Service Name" style="text;html=1;align=center;verticalAlign=middle;whiteSpace=wrap;rounded=0;" vertex="1" parent="1">
          <mxGeometry x="-199.71000000000004" y="1960" width="90" height="30" as="geometry" />
        </mxCell>
        <mxCell id="B_CpDAsh1I-Uy5bGZGsl-318" value="Rating,Price" style="text;html=1;align=center;verticalAlign=middle;whiteSpace=wrap;rounded=0;" vertex="1" parent="1">
          <mxGeometry x="-179.71000000000004" y="1980" width="60" height="30" as="geometry" />
        </mxCell>
        <mxCell id="B_CpDAsh1I-Uy5bGZGsl-319" value="Description" style="text;html=1;align=center;verticalAlign=middle;whiteSpace=wrap;rounded=0;" vertex="1" parent="1">
          <mxGeometry x="-184.71000000000004" y="2000" width="60" height="30" as="geometry" />
        </mxCell>
        <mxCell id="B_CpDAsh1I-Uy5bGZGsl-320" value="" style="rounded=0;whiteSpace=wrap;html=1;rotation=-90;" vertex="1" parent="1">
          <mxGeometry x="-2056.09" y="1300.1399999999999" width="1013.75" height="687.19" as="geometry" />
        </mxCell>
        <mxCell id="B_CpDAsh1I-Uy5bGZGsl-321" value="&lt;font style=&quot;font-size: 18px;&quot;&gt;Address of current Locality of User&lt;/font&gt;" style="rounded=0;whiteSpace=wrap;html=1;strokeWidth=2;" vertex="1" parent="1">
          <mxGeometry x="-1879.68" y="1186.87" width="280" height="50" as="geometry" />
        </mxCell>
        <mxCell id="B_CpDAsh1I-Uy5bGZGsl-322" value="&lt;font style=&quot;font-size: 14px;&quot;&gt;Search For Services And Products Nearby&lt;/font&gt;" style="rounded=0;whiteSpace=wrap;html=1;" vertex="1" parent="1">
          <mxGeometry x="-1579.68" y="1186.87" width="190" height="50" as="geometry" />
        </mxCell>
        <mxCell id="B_CpDAsh1I-Uy5bGZGsl-323" value="&lt;font style=&quot;font-size: 18px;&quot;&gt;Profile Icon&lt;/font&gt;" style="ellipse;whiteSpace=wrap;html=1;" vertex="1" parent="1">
          <mxGeometry x="-1359.68" y="1164.37" width="120" height="95" as="geometry" />
        </mxCell>
        <mxCell id="B_CpDAsh1I-Uy5bGZGsl-324" value="" style="rounded=1;whiteSpace=wrap;html=1;align=left;" vertex="1" parent="1">
          <mxGeometry x="-1864.68" y="1266.87" width="599.99" height="270" as="geometry" />
        </mxCell>
        <mxCell id="B_CpDAsh1I-Uy5bGZGsl-325" value="" style="rounded=1;whiteSpace=wrap;html=1;" vertex="1" parent="1">
          <mxGeometry x="-1834.68" y="1306.87" width="215" height="210" as="geometry" />
        </mxCell>
        <mxCell id="B_CpDAsh1I-Uy5bGZGsl-326" value="" style="rounded=1;whiteSpace=wrap;html=1;" vertex="1" parent="1">
          <mxGeometry x="-1834.68" y="1566.87" width="545" height="60" as="geometry" />
        </mxCell>
        <mxCell id="B_CpDAsh1I-Uy5bGZGsl-327" value="OverView" style="text;html=1;align=center;verticalAlign=middle;whiteSpace=wrap;rounded=0;" vertex="1" parent="1">
          <mxGeometry x="-1843.68" y="1581.87" width="196.5" height="30" as="geometry" />
        </mxCell>
        <mxCell id="B_CpDAsh1I-Uy5bGZGsl-328" value="Order Online" style="text;html=1;align=center;verticalAlign=middle;whiteSpace=wrap;rounded=0;" vertex="1" parent="1">
          <mxGeometry x="-1671.18" y="1581.87" width="200" height="30" as="geometry" />
        </mxCell>
        <mxCell id="B_CpDAsh1I-Uy5bGZGsl-329" value="Product Page&amp;nbsp;" style="text;html=1;align=center;verticalAlign=middle;whiteSpace=wrap;rounded=0;" vertex="1" parent="1">
          <mxGeometry x="-1739.22" y="1076.87" width="380" height="30" as="geometry" />
        </mxCell>
        <mxCell id="B_CpDAsh1I-Uy5bGZGsl-330" value="DropDown" style="text;html=1;align=center;verticalAlign=middle;whiteSpace=wrap;rounded=0;" vertex="1" parent="1">
          <mxGeometry x="-1329.68" y="1226.87" width="60" height="30" as="geometry" />
        </mxCell>
        <mxCell id="B_CpDAsh1I-Uy5bGZGsl-331" value="&lt;font style=&quot;font-size: 19px;&quot;&gt;Product Image&lt;/font&gt;" style="text;html=1;align=center;verticalAlign=middle;whiteSpace=wrap;rounded=0;" vertex="1" parent="1">
          <mxGeometry x="-1807.18" y="1381.87" width="160" height="40" as="geometry" />
        </mxCell>
        <mxCell id="B_CpDAsh1I-Uy5bGZGsl-332" value="&lt;h1 style=&quot;margin-top: 0px;&quot;&gt;&amp;nbsp; &amp;nbsp; Product Name&lt;/h1&gt;&lt;div&gt;&lt;span style=&quot;white-space: pre;&quot;&gt;&#x9;&lt;/span&gt;Providers Name , Address.&lt;br&gt;&lt;/div&gt;&lt;div&gt;&lt;span style=&quot;white-space: pre;&quot;&gt;&#x9;&lt;/span&gt;Availability Status,&amp;nbsp;&lt;br&gt;&lt;/div&gt;&lt;div&gt;&lt;span style=&quot;white-space: pre;&quot;&gt;&#x9;&lt;/span&gt;Close Time,&lt;br&gt;&lt;/div&gt;&lt;div&gt;&lt;span style=&quot;white-space: pre;&quot;&gt;&#x9;&lt;/span&gt;Weekly Info.&lt;br&gt;&lt;/div&gt;&lt;div&gt;&lt;br&gt;&lt;/div&gt;" style="text;html=1;whiteSpace=wrap;overflow=hidden;rounded=0;" vertex="1" parent="1">
          <mxGeometry x="-1599.68" y="1311.87" width="260" height="200" as="geometry" />
        </mxCell>
        <mxCell id="B_CpDAsh1I-Uy5bGZGsl-333" value="Product Reviews" style="text;html=1;align=center;verticalAlign=middle;whiteSpace=wrap;rounded=0;" vertex="1" parent="1">
          <mxGeometry x="-1499.68" y="1581.87" width="200" height="30" as="geometry" />
        </mxCell>
        <mxCell id="B_CpDAsh1I-Uy5bGZGsl-334" value="" style="rounded=1;whiteSpace=wrap;html=1;" vertex="1" parent="1">
          <mxGeometry x="-1972.18" y="1656.87" width="252.5" height="400" as="geometry" />
        </mxCell>
        <mxCell id="B_CpDAsh1I-Uy5bGZGsl-335" value="" style="endArrow=classic;html=1;rounded=0;exitX=0.5;exitY=1;exitDx=0;exitDy=0;" edge="1" parent="1" source="B_CpDAsh1I-Uy5bGZGsl-327" target="B_CpDAsh1I-Uy5bGZGsl-334">
          <mxGeometry width="50" height="50" relative="1" as="geometry">
            <mxPoint x="-1539.68" y="1766.87" as="sourcePoint" />
            <mxPoint x="-1489.68" y="1716.87" as="targetPoint" />
          </mxGeometry>
        </mxCell>
        <mxCell id="B_CpDAsh1I-Uy5bGZGsl-336" value="" style="rounded=1;whiteSpace=wrap;html=1;" vertex="1" parent="1">
          <mxGeometry x="-1659.68" y="1676.87" width="240" height="420" as="geometry" />
        </mxCell>
        <mxCell id="B_CpDAsh1I-Uy5bGZGsl-337" value="" style="endArrow=classic;html=1;rounded=0;" edge="1" parent="1" source="B_CpDAsh1I-Uy5bGZGsl-328" target="B_CpDAsh1I-Uy5bGZGsl-336">
          <mxGeometry width="50" height="50" relative="1" as="geometry">
            <mxPoint x="-1539.68" y="1766.87" as="sourcePoint" />
            <mxPoint x="-1489.68" y="1716.87" as="targetPoint" />
          </mxGeometry>
        </mxCell>
        <mxCell id="B_CpDAsh1I-Uy5bGZGsl-338" value="" style="rounded=1;whiteSpace=wrap;html=1;" vertex="1" parent="1">
          <mxGeometry x="-1359.68" y="1676.87" width="210" height="400" as="geometry" />
        </mxCell>
        <mxCell id="B_CpDAsh1I-Uy5bGZGsl-339" value="" style="endArrow=classic;html=1;rounded=0;exitX=0.381;exitY=0.995;exitDx=0;exitDy=0;exitPerimeter=0;entryX=0.25;entryY=0;entryDx=0;entryDy=0;" edge="1" parent="1" source="B_CpDAsh1I-Uy5bGZGsl-333" target="B_CpDAsh1I-Uy5bGZGsl-338">
          <mxGeometry width="50" height="50" relative="1" as="geometry">
            <mxPoint x="-1559.68" y="1621.87" as="sourcePoint" />
            <mxPoint x="-1552.68" y="1686.87" as="targetPoint" />
            <Array as="points" />
          </mxGeometry>
        </mxCell>
        <mxCell id="B_CpDAsh1I-Uy5bGZGsl-340" value="&lt;span style=&quot;border: 0px solid rgb(227, 227, 227); box-sizing: border-box; --tw-border-spacing-x: 0; --tw-border-spacing-y: 0; --tw-translate-x: 0; --tw-translate-y: 0; --tw-rotate: 0; --tw-skew-x: 0; --tw-skew-y: 0; --tw-scale-x: 1; --tw-scale-y: 1; --tw-pan-x: ; --tw-pan-y: ; --tw-pinch-zoom: ; --tw-scroll-snap-strictness: proximity; --tw-gradient-from-position: ; --tw-gradient-via-position: ; --tw-gradient-to-position: ; --tw-ordinal: ; --tw-slashed-zero: ; --tw-numeric-figure: ; --tw-numeric-spacing: ; --tw-numeric-fraction: ; --tw-ring-inset: ; --tw-ring-offset-width: 0px; --tw-ring-offset-color: #fff; --tw-ring-color: rgba(69,89,164,.5); --tw-ring-offset-shadow: 0 0 transparent; --tw-ring-shadow: 0 0 transparent; --tw-shadow: 0 0 transparent; --tw-shadow-colored: 0 0 transparent; --tw-blur: ; --tw-brightness: ; --tw-contrast: ; --tw-grayscale: ; --tw-hue-rotate: ; --tw-invert: ; --tw-saturate: ; --tw-sepia: ; --tw-drop-shadow: ; --tw-backdrop-blur: ; --tw-backdrop-brightness: ; --tw-backdrop-contrast: ; --tw-backdrop-grayscale: ; --tw-backdrop-hue-rotate: ; --tw-backdrop-invert: ; --tw-backdrop-opacity: ; --tw-backdrop-saturate: ; --tw-backdrop-sepia: ; --tw-contain-size: ; --tw-contain-layout: ; --tw-contain-paint: ; --tw-contain-style: ; font-weight: 600; color: rgb(13, 13, 13); font-family: Söhne, ui-sans-serif, system-ui, -apple-system, &amp;quot;Segoe UI&amp;quot;, Roboto, Ubuntu, Cantarell, &amp;quot;Noto Sans&amp;quot;, sans-serif, &amp;quot;Helvetica Neue&amp;quot;, Arial, &amp;quot;Apple Color Emoji&amp;quot;, &amp;quot;Segoe UI Emoji&amp;quot;, &amp;quot;Segoe UI Symbol&amp;quot;, &amp;quot;Noto Color Emoji&amp;quot;; font-size: 16px; text-align: left; white-space-collapse: preserve; background-color: rgb(255, 255, 255);&quot;&gt;1. Product Name&lt;/span&gt;" style="text;html=1;align=center;verticalAlign=middle;whiteSpace=wrap;rounded=0;" vertex="1" parent="1">
          <mxGeometry x="-1947.18" y="1716.87" width="140" height="30" as="geometry" />
        </mxCell>
        <mxCell id="B_CpDAsh1I-Uy5bGZGsl-341" value="&lt;span style=&quot;border: 0px solid rgb(227, 227, 227); box-sizing: border-box; --tw-border-spacing-x: 0; --tw-border-spacing-y: 0; --tw-translate-x: 0; --tw-translate-y: 0; --tw-rotate: 0; --tw-skew-x: 0; --tw-skew-y: 0; --tw-scale-x: 1; --tw-scale-y: 1; --tw-pan-x: ; --tw-pan-y: ; --tw-pinch-zoom: ; --tw-scroll-snap-strictness: proximity; --tw-gradient-from-position: ; --tw-gradient-via-position: ; --tw-gradient-to-position: ; --tw-ordinal: ; --tw-slashed-zero: ; --tw-numeric-figure: ; --tw-numeric-spacing: ; --tw-numeric-fraction: ; --tw-ring-inset: ; --tw-ring-offset-width: 0px; --tw-ring-offset-color: #fff; --tw-ring-color: rgba(69,89,164,.5); --tw-ring-offset-shadow: 0 0 transparent; --tw-ring-shadow: 0 0 transparent; --tw-shadow: 0 0 transparent; --tw-shadow-colored: 0 0 transparent; --tw-blur: ; --tw-brightness: ; --tw-contrast: ; --tw-grayscale: ; --tw-hue-rotate: ; --tw-invert: ; --tw-saturate: ; --tw-sepia: ; --tw-drop-shadow: ; --tw-backdrop-blur: ; --tw-backdrop-brightness: ; --tw-backdrop-contrast: ; --tw-backdrop-grayscale: ; --tw-backdrop-hue-rotate: ; --tw-backdrop-invert: ; --tw-backdrop-opacity: ; --tw-backdrop-saturate: ; --tw-backdrop-sepia: ; --tw-contain-size: ; --tw-contain-layout: ; --tw-contain-paint: ; --tw-contain-style: ; font-weight: 600; color: rgb(13, 13, 13); font-family: Söhne, ui-sans-serif, system-ui, -apple-system, &amp;quot;Segoe UI&amp;quot;, Roboto, Ubuntu, Cantarell, &amp;quot;Noto Sans&amp;quot;, sans-serif, &amp;quot;Helvetica Neue&amp;quot;, Arial, &amp;quot;Apple Color Emoji&amp;quot;, &amp;quot;Segoe UI Emoji&amp;quot;, &amp;quot;Segoe UI Symbol&amp;quot;, &amp;quot;Noto Color Emoji&amp;quot;; font-size: 16px; text-align: left; white-space-collapse: preserve; background-color: rgb(255, 255, 255);&quot;&gt;5. Product Price&lt;/span&gt;&lt;div&gt;&lt;br&gt;&lt;/div&gt;" style="text;html=1;align=center;verticalAlign=middle;whiteSpace=wrap;rounded=0;" vertex="1" parent="1">
          <mxGeometry x="-1989.68" y="1826.87" width="220" height="60" as="geometry" />
        </mxCell>
        <mxCell id="B_CpDAsh1I-Uy5bGZGsl-342" value="&lt;span style=&quot;border: 0px solid rgb(227, 227, 227); box-sizing: border-box; --tw-border-spacing-x: 0; --tw-border-spacing-y: 0; --tw-translate-x: 0; --tw-translate-y: 0; --tw-rotate: 0; --tw-skew-x: 0; --tw-skew-y: 0; --tw-scale-x: 1; --tw-scale-y: 1; --tw-pan-x: ; --tw-pan-y: ; --tw-pinch-zoom: ; --tw-scroll-snap-strictness: proximity; --tw-gradient-from-position: ; --tw-gradient-via-position: ; --tw-gradient-to-position: ; --tw-ordinal: ; --tw-slashed-zero: ; --tw-numeric-figure: ; --tw-numeric-spacing: ; --tw-numeric-fraction: ; --tw-ring-inset: ; --tw-ring-offset-width: 0px; --tw-ring-offset-color: #fff; --tw-ring-color: rgba(69,89,164,.5); --tw-ring-offset-shadow: 0 0 transparent; --tw-ring-shadow: 0 0 transparent; --tw-shadow: 0 0 transparent; --tw-shadow-colored: 0 0 transparent; --tw-blur: ; --tw-brightness: ; --tw-contrast: ; --tw-grayscale: ; --tw-hue-rotate: ; --tw-invert: ; --tw-saturate: ; --tw-sepia: ; --tw-drop-shadow: ; --tw-backdrop-blur: ; --tw-backdrop-brightness: ; --tw-backdrop-contrast: ; --tw-backdrop-grayscale: ; --tw-backdrop-hue-rotate: ; --tw-backdrop-invert: ; --tw-backdrop-opacity: ; --tw-backdrop-saturate: ; --tw-backdrop-sepia: ; --tw-contain-size: ; --tw-contain-layout: ; --tw-contain-paint: ; --tw-contain-style: ; font-weight: 600; color: rgb(13, 13, 13); font-family: Söhne, ui-sans-serif, system-ui, -apple-system, &amp;quot;Segoe UI&amp;quot;, Roboto, Ubuntu, Cantarell, &amp;quot;Noto Sans&amp;quot;, sans-serif, &amp;quot;Helvetica Neue&amp;quot;, Arial, &amp;quot;Apple Color Emoji&amp;quot;, &amp;quot;Segoe UI Emoji&amp;quot;, &amp;quot;Segoe UI Symbol&amp;quot;, &amp;quot;Noto Color Emoji&amp;quot;; font-size: 16px; text-align: left; white-space-collapse: preserve; background-color: rgb(255, 255, 255);&quot;&gt;2. Product Benefits&lt;/span&gt;" style="text;html=1;align=center;verticalAlign=middle;whiteSpace=wrap;rounded=0;" vertex="1" parent="1">
          <mxGeometry x="-1939.68" y="1746.87" width="140" height="30" as="geometry" />
        </mxCell>
        <mxCell id="B_CpDAsh1I-Uy5bGZGsl-343" value="&lt;span style=&quot;border: 0px solid rgb(227, 227, 227); box-sizing: border-box; --tw-border-spacing-x: 0; --tw-border-spacing-y: 0; --tw-translate-x: 0; --tw-translate-y: 0; --tw-rotate: 0; --tw-skew-x: 0; --tw-skew-y: 0; --tw-scale-x: 1; --tw-scale-y: 1; --tw-pan-x: ; --tw-pan-y: ; --tw-pinch-zoom: ; --tw-scroll-snap-strictness: proximity; --tw-gradient-from-position: ; --tw-gradient-via-position: ; --tw-gradient-to-position: ; --tw-ordinal: ; --tw-slashed-zero: ; --tw-numeric-figure: ; --tw-numeric-spacing: ; --tw-numeric-fraction: ; --tw-ring-inset: ; --tw-ring-offset-width: 0px; --tw-ring-offset-color: #fff; --tw-ring-color: rgba(69,89,164,.5); --tw-ring-offset-shadow: 0 0 transparent; --tw-ring-shadow: 0 0 transparent; --tw-shadow: 0 0 transparent; --tw-shadow-colored: 0 0 transparent; --tw-blur: ; --tw-brightness: ; --tw-contrast: ; --tw-grayscale: ; --tw-hue-rotate: ; --tw-invert: ; --tw-saturate: ; --tw-sepia: ; --tw-drop-shadow: ; --tw-backdrop-blur: ; --tw-backdrop-brightness: ; --tw-backdrop-contrast: ; --tw-backdrop-grayscale: ; --tw-backdrop-hue-rotate: ; --tw-backdrop-invert: ; --tw-backdrop-opacity: ; --tw-backdrop-saturate: ; --tw-backdrop-sepia: ; --tw-contain-size: ; --tw-contain-layout: ; --tw-contain-paint: ; --tw-contain-style: ; font-weight: 600; color: rgb(13, 13, 13); font-family: Söhne, ui-sans-serif, system-ui, -apple-system, &amp;quot;Segoe UI&amp;quot;, Roboto, Ubuntu, Cantarell, &amp;quot;Noto Sans&amp;quot;, sans-serif, &amp;quot;Helvetica Neue&amp;quot;, Arial, &amp;quot;Apple Color Emoji&amp;quot;, &amp;quot;Segoe UI Emoji&amp;quot;, &amp;quot;Segoe UI Symbol&amp;quot;, &amp;quot;Noto Color Emoji&amp;quot;; font-size: 16px; text-align: left; white-space-collapse: preserve; background-color: rgb(255, 255, 255);&quot;&gt;3. Product Ratings&lt;/span&gt;" style="text;html=1;align=center;verticalAlign=middle;whiteSpace=wrap;rounded=0;" vertex="1" parent="1">
          <mxGeometry x="-1939.68" y="1776.87" width="140" height="30" as="geometry" />
        </mxCell>
        <mxCell id="B_CpDAsh1I-Uy5bGZGsl-344" value="&lt;span style=&quot;border: 0px solid rgb(227, 227, 227); box-sizing: border-box; --tw-border-spacing-x: 0; --tw-border-spacing-y: 0; --tw-translate-x: 0; --tw-translate-y: 0; --tw-rotate: 0; --tw-skew-x: 0; --tw-skew-y: 0; --tw-scale-x: 1; --tw-scale-y: 1; --tw-pan-x: ; --tw-pan-y: ; --tw-pinch-zoom: ; --tw-scroll-snap-strictness: proximity; --tw-gradient-from-position: ; --tw-gradient-via-position: ; --tw-gradient-to-position: ; --tw-ordinal: ; --tw-slashed-zero: ; --tw-numeric-figure: ; --tw-numeric-spacing: ; --tw-numeric-fraction: ; --tw-ring-inset: ; --tw-ring-offset-width: 0px; --tw-ring-offset-color: #fff; --tw-ring-color: rgba(69,89,164,.5); --tw-ring-offset-shadow: 0 0 transparent; --tw-ring-shadow: 0 0 transparent; --tw-shadow: 0 0 transparent; --tw-shadow-colored: 0 0 transparent; --tw-blur: ; --tw-brightness: ; --tw-contrast: ; --tw-grayscale: ; --tw-hue-rotate: ; --tw-invert: ; --tw-saturate: ; --tw-sepia: ; --tw-drop-shadow: ; --tw-backdrop-blur: ; --tw-backdrop-brightness: ; --tw-backdrop-contrast: ; --tw-backdrop-grayscale: ; --tw-backdrop-hue-rotate: ; --tw-backdrop-invert: ; --tw-backdrop-opacity: ; --tw-backdrop-saturate: ; --tw-backdrop-sepia: ; --tw-contain-size: ; --tw-contain-layout: ; --tw-contain-paint: ; --tw-contain-style: ; font-weight: 600; color: rgb(13, 13, 13); font-family: Söhne, ui-sans-serif, system-ui, -apple-system, &amp;quot;Segoe UI&amp;quot;, Roboto, Ubuntu, Cantarell, &amp;quot;Noto Sans&amp;quot;, sans-serif, &amp;quot;Helvetica Neue&amp;quot;, Arial, &amp;quot;Apple Color Emoji&amp;quot;, &amp;quot;Segoe UI Emoji&amp;quot;, &amp;quot;Segoe UI Symbol&amp;quot;, &amp;quot;Noto Color Emoji&amp;quot;; font-size: 16px; text-align: left; white-space-collapse: preserve; background-color: rgb(255, 255, 255);&quot;&gt;4. Product Composition&lt;/span&gt;" style="text;html=1;align=center;verticalAlign=middle;whiteSpace=wrap;rounded=0;" vertex="1" parent="1">
          <mxGeometry x="-1939.68" y="1796.87" width="180" height="40" as="geometry" />
        </mxCell>
        <mxCell id="B_CpDAsh1I-Uy5bGZGsl-345" value="Product Price&amp;nbsp;" style="text;html=1;align=center;verticalAlign=middle;whiteSpace=wrap;rounded=0;" vertex="1" parent="1">
          <mxGeometry x="-1624.68" y="1726.87" width="155" height="30" as="geometry" />
        </mxCell>
        <mxCell id="B_CpDAsh1I-Uy5bGZGsl-346" value="" style="rounded=1;whiteSpace=wrap;html=1;" vertex="1" parent="1">
          <mxGeometry x="-1619.68" y="1776.87" width="171.5" height="50" as="geometry" />
        </mxCell>
        <mxCell id="B_CpDAsh1I-Uy5bGZGsl-347" value="Any Running Offers" style="text;html=1;align=center;verticalAlign=middle;whiteSpace=wrap;rounded=0;" vertex="1" parent="1">
          <mxGeometry x="-1614.22" y="1776.87" width="130" height="35" as="geometry" />
        </mxCell>
        <mxCell id="B_CpDAsh1I-Uy5bGZGsl-348" value="" style="rounded=1;whiteSpace=wrap;html=1;" vertex="1" parent="1">
          <mxGeometry x="-1605.43" y="1701.87" width="120" height="60" as="geometry" />
        </mxCell>
        <mxCell id="B_CpDAsh1I-Uy5bGZGsl-349" value="Product Cost" style="text;html=1;align=center;verticalAlign=middle;whiteSpace=wrap;rounded=0;" vertex="1" parent="1">
          <mxGeometry x="-1579.68" y="1716.87" width="80" height="30" as="geometry" />
        </mxCell>
        <mxCell id="B_CpDAsh1I-Uy5bGZGsl-350" value="Delivery Status" style="rounded=1;whiteSpace=wrap;html=1;" vertex="1" parent="1">
          <mxGeometry x="-1629.68" y="1846.87" width="165.01" height="60" as="geometry" />
        </mxCell>
        <mxCell id="B_CpDAsh1I-Uy5bGZGsl-351" value="Payment Options" style="rounded=1;whiteSpace=wrap;html=1;" vertex="1" parent="1">
          <mxGeometry x="-1622.18" y="1916.87" width="152.5" height="100" as="geometry" />
        </mxCell>
        <mxCell id="B_CpDAsh1I-Uy5bGZGsl-352" value="Order Now" style="ellipse;whiteSpace=wrap;html=1;" vertex="1" parent="1">
          <mxGeometry x="-1569.68" y="2026.87" width="60" height="60" as="geometry" />
        </mxCell>
        <mxCell id="B_CpDAsh1I-Uy5bGZGsl-353" value="Review List&amp;nbsp;" style="rounded=1;whiteSpace=wrap;html=1;" vertex="1" parent="1">
          <mxGeometry x="-1339.68" y="1696.87" width="170" height="60" as="geometry" />
        </mxCell>
        <mxCell id="B_CpDAsh1I-Uy5bGZGsl-354" value="" style="rounded=1;whiteSpace=wrap;html=1;" vertex="1" parent="1">
          <mxGeometry x="-1339.68" y="1786.87" width="180" height="60" as="geometry" />
        </mxCell>
        <mxCell id="B_CpDAsh1I-Uy5bGZGsl-355" value="UserName" style="text;html=1;align=center;verticalAlign=middle;whiteSpace=wrap;rounded=0;" vertex="1" parent="1">
          <mxGeometry x="-1299.68" y="1786.87" width="60" height="30" as="geometry" />
        </mxCell>
        <mxCell id="B_CpDAsh1I-Uy5bGZGsl-356" value="Review Text" style="text;html=1;align=center;verticalAlign=middle;whiteSpace=wrap;rounded=0;" vertex="1" parent="1">
          <mxGeometry x="-1309.68" y="1801.87" width="90" height="30" as="geometry" />
        </mxCell>
        <mxCell id="B_CpDAsh1I-Uy5bGZGsl-357" value="Review Stars" style="text;html=1;align=center;verticalAlign=middle;whiteSpace=wrap;rounded=0;" vertex="1" parent="1">
          <mxGeometry x="-1304.68" y="1816.87" width="80" height="30" as="geometry" />
        </mxCell>
        <mxCell id="B_CpDAsh1I-Uy5bGZGsl-358" value="" style="rounded=1;whiteSpace=wrap;html=1;" vertex="1" parent="1">
          <mxGeometry x="-1349.68" y="1876.87" width="180" height="60" as="geometry" />
        </mxCell>
        <mxCell id="B_CpDAsh1I-Uy5bGZGsl-359" value="" style="rounded=1;whiteSpace=wrap;html=1;" vertex="1" parent="1">
          <mxGeometry x="-1349.68" y="1966.87" width="180" height="60" as="geometry" />
        </mxCell>
        <mxCell id="B_CpDAsh1I-Uy5bGZGsl-360" value="Review Text" style="text;html=1;align=center;verticalAlign=middle;whiteSpace=wrap;rounded=0;" vertex="1" parent="1">
          <mxGeometry x="-1304.68" y="1891.87" width="90" height="30" as="geometry" />
        </mxCell>
        <mxCell id="B_CpDAsh1I-Uy5bGZGsl-361" value="Review Stars" style="text;html=1;align=center;verticalAlign=middle;whiteSpace=wrap;rounded=0;" vertex="1" parent="1">
          <mxGeometry x="-1299.68" y="1906.87" width="80" height="30" as="geometry" />
        </mxCell>
        <mxCell id="B_CpDAsh1I-Uy5bGZGsl-362" value="UserName" style="text;html=1;align=center;verticalAlign=middle;whiteSpace=wrap;rounded=0;" vertex="1" parent="1">
          <mxGeometry x="-1294.68" y="1871.87" width="60" height="30" as="geometry" />
        </mxCell>
        <mxCell id="B_CpDAsh1I-Uy5bGZGsl-363" value="UserName" style="text;html=1;align=center;verticalAlign=middle;whiteSpace=wrap;rounded=0;" vertex="1" parent="1">
          <mxGeometry x="-1294.68" y="1966.87" width="60" height="30" as="geometry" />
        </mxCell>
        <mxCell id="B_CpDAsh1I-Uy5bGZGsl-364" value="Review Text" style="text;html=1;align=center;verticalAlign=middle;whiteSpace=wrap;rounded=0;" vertex="1" parent="1">
          <mxGeometry x="-1309.68" y="1982.87" width="90" height="30" as="geometry" />
        </mxCell>
        <mxCell id="B_CpDAsh1I-Uy5bGZGsl-365" value="Review Stars" style="text;html=1;align=center;verticalAlign=middle;whiteSpace=wrap;rounded=0;" vertex="1" parent="1">
          <mxGeometry x="-1304.68" y="1996.87" width="80" height="30" as="geometry" />
        </mxCell>
        <mxCell id="B_CpDAsh1I-Uy5bGZGsl-366" value="" style="rounded=0;whiteSpace=wrap;html=1;rotation=-90;" vertex="1" parent="1">
          <mxGeometry x="570" y="1300.1399999999999" width="1013.75" height="687.19" as="geometry" />
        </mxCell>
        <mxCell id="B_CpDAsh1I-Uy5bGZGsl-367" value="&lt;font style=&quot;font-size: 18px;&quot;&gt;Address of current Locality of User&lt;/font&gt;" style="rounded=0;whiteSpace=wrap;html=1;strokeWidth=2;" vertex="1" parent="1">
          <mxGeometry x="746.4100000000001" y="1186.87" width="280" height="50" as="geometry" />
        </mxCell>
        <mxCell id="B_CpDAsh1I-Uy5bGZGsl-368" value="&lt;font style=&quot;font-size: 14px;&quot;&gt;Search For Services And Products Nearby&lt;/font&gt;" style="rounded=0;whiteSpace=wrap;html=1;" vertex="1" parent="1">
          <mxGeometry x="1046.41" y="1186.87" width="190" height="50" as="geometry" />
        </mxCell>
        <mxCell id="B_CpDAsh1I-Uy5bGZGsl-369" value="&lt;font style=&quot;font-size: 18px;&quot;&gt;Profile Icon&lt;/font&gt;" style="ellipse;whiteSpace=wrap;html=1;" vertex="1" parent="1">
          <mxGeometry x="1266.41" y="1164.37" width="120" height="95" as="geometry" />
        </mxCell>
        <mxCell id="B_CpDAsh1I-Uy5bGZGsl-370" value="" style="rounded=1;whiteSpace=wrap;html=1;align=left;" vertex="1" parent="1">
          <mxGeometry x="761.4100000000001" y="1266.87" width="599.99" height="270" as="geometry" />
        </mxCell>
        <mxCell id="B_CpDAsh1I-Uy5bGZGsl-371" value="" style="rounded=1;whiteSpace=wrap;html=1;" vertex="1" parent="1">
          <mxGeometry x="791.4100000000001" y="1306.87" width="215" height="210" as="geometry" />
        </mxCell>
        <mxCell id="B_CpDAsh1I-Uy5bGZGsl-372" value="" style="rounded=1;whiteSpace=wrap;html=1;" vertex="1" parent="1">
          <mxGeometry x="791.4100000000001" y="1566.87" width="545" height="60" as="geometry" />
        </mxCell>
        <mxCell id="B_CpDAsh1I-Uy5bGZGsl-373" value="OverView" style="text;html=1;align=center;verticalAlign=middle;whiteSpace=wrap;rounded=0;" vertex="1" parent="1">
          <mxGeometry x="782.4100000000001" y="1581.87" width="196.5" height="30" as="geometry" />
        </mxCell>
        <mxCell id="B_CpDAsh1I-Uy5bGZGsl-374" value="Order Online" style="text;html=1;align=center;verticalAlign=middle;whiteSpace=wrap;rounded=0;" vertex="1" parent="1">
          <mxGeometry x="954.9100000000001" y="1581.87" width="200" height="30" as="geometry" />
        </mxCell>
        <mxCell id="B_CpDAsh1I-Uy5bGZGsl-375" value="Services Page&amp;nbsp;" style="text;html=1;align=center;verticalAlign=middle;whiteSpace=wrap;rounded=0;" vertex="1" parent="1">
          <mxGeometry x="886.8700000000001" y="1076.87" width="380" height="30" as="geometry" />
        </mxCell>
        <mxCell id="B_CpDAsh1I-Uy5bGZGsl-376" value="DropDown" style="text;html=1;align=center;verticalAlign=middle;whiteSpace=wrap;rounded=0;" vertex="1" parent="1">
          <mxGeometry x="1296.41" y="1226.87" width="60" height="30" as="geometry" />
        </mxCell>
        <mxCell id="B_CpDAsh1I-Uy5bGZGsl-377" value="&lt;font style=&quot;font-size: 19px;&quot;&gt;Service Image&lt;/font&gt;" style="text;html=1;align=center;verticalAlign=middle;whiteSpace=wrap;rounded=0;" vertex="1" parent="1">
          <mxGeometry x="818.9100000000001" y="1381.87" width="160" height="40" as="geometry" />
        </mxCell>
        <mxCell id="B_CpDAsh1I-Uy5bGZGsl-378" value="&lt;h1 style=&quot;margin-top: 0px;&quot;&gt;&amp;nbsp; &amp;nbsp; Service Name&lt;/h1&gt;&lt;div&gt;&lt;span style=&quot;white-space: pre;&quot;&gt;&#x9;&lt;/span&gt;Providers Name , Address.&lt;br&gt;&lt;/div&gt;&lt;div&gt;&lt;span style=&quot;white-space: pre;&quot;&gt;&#x9;&lt;/span&gt;Availability Status,&amp;nbsp;&lt;br&gt;&lt;/div&gt;&lt;div&gt;&lt;span style=&quot;white-space: pre;&quot;&gt;&#x9;&lt;/span&gt;Close Time,&lt;br&gt;&lt;/div&gt;&lt;div&gt;&lt;span style=&quot;white-space: pre;&quot;&gt;&#x9;&lt;/span&gt;Weekly Info.&lt;br&gt;&lt;/div&gt;&lt;div&gt;&lt;br&gt;&lt;/div&gt;" style="text;html=1;whiteSpace=wrap;overflow=hidden;rounded=0;" vertex="1" parent="1">
          <mxGeometry x="1026.41" y="1311.87" width="260" height="200" as="geometry" />
        </mxCell>
        <mxCell id="B_CpDAsh1I-Uy5bGZGsl-379" value="Product Reviews" style="text;html=1;align=center;verticalAlign=middle;whiteSpace=wrap;rounded=0;" vertex="1" parent="1">
          <mxGeometry x="1126.41" y="1581.87" width="200" height="30" as="geometry" />
        </mxCell>
        <mxCell id="B_CpDAsh1I-Uy5bGZGsl-380" value="" style="rounded=1;whiteSpace=wrap;html=1;" vertex="1" parent="1">
          <mxGeometry x="653.9100000000001" y="1656.87" width="252.5" height="400" as="geometry" />
        </mxCell>
        <mxCell id="B_CpDAsh1I-Uy5bGZGsl-381" value="" style="endArrow=classic;html=1;rounded=0;exitX=0.5;exitY=1;exitDx=0;exitDy=0;" edge="1" parent="1" source="B_CpDAsh1I-Uy5bGZGsl-373" target="B_CpDAsh1I-Uy5bGZGsl-380">
          <mxGeometry width="50" height="50" relative="1" as="geometry">
            <mxPoint x="1086.41" y="1766.87" as="sourcePoint" />
            <mxPoint x="1136.41" y="1716.87" as="targetPoint" />
          </mxGeometry>
        </mxCell>
        <mxCell id="B_CpDAsh1I-Uy5bGZGsl-382" value="" style="rounded=1;whiteSpace=wrap;html=1;" vertex="1" parent="1">
          <mxGeometry x="966.4100000000001" y="1676.87" width="240" height="420" as="geometry" />
        </mxCell>
        <mxCell id="B_CpDAsh1I-Uy5bGZGsl-383" value="" style="endArrow=classic;html=1;rounded=0;" edge="1" parent="1" source="B_CpDAsh1I-Uy5bGZGsl-374" target="B_CpDAsh1I-Uy5bGZGsl-382">
          <mxGeometry width="50" height="50" relative="1" as="geometry">
            <mxPoint x="1086.41" y="1766.87" as="sourcePoint" />
            <mxPoint x="1136.41" y="1716.87" as="targetPoint" />
          </mxGeometry>
        </mxCell>
        <mxCell id="B_CpDAsh1I-Uy5bGZGsl-384" value="" style="rounded=1;whiteSpace=wrap;html=1;" vertex="1" parent="1">
          <mxGeometry x="1266.41" y="1676.87" width="210" height="400" as="geometry" />
        </mxCell>
        <mxCell id="B_CpDAsh1I-Uy5bGZGsl-385" value="" style="endArrow=classic;html=1;rounded=0;exitX=0.381;exitY=0.995;exitDx=0;exitDy=0;exitPerimeter=0;entryX=0.25;entryY=0;entryDx=0;entryDy=0;" edge="1" parent="1" source="B_CpDAsh1I-Uy5bGZGsl-379" target="B_CpDAsh1I-Uy5bGZGsl-384">
          <mxGeometry width="50" height="50" relative="1" as="geometry">
            <mxPoint x="1066.41" y="1621.87" as="sourcePoint" />
            <mxPoint x="1073.41" y="1686.87" as="targetPoint" />
            <Array as="points" />
          </mxGeometry>
        </mxCell>
        <mxCell id="B_CpDAsh1I-Uy5bGZGsl-386" value="&lt;span style=&quot;border: 0px solid rgb(227, 227, 227); box-sizing: border-box; --tw-border-spacing-x: 0; --tw-border-spacing-y: 0; --tw-translate-x: 0; --tw-translate-y: 0; --tw-rotate: 0; --tw-skew-x: 0; --tw-skew-y: 0; --tw-scale-x: 1; --tw-scale-y: 1; --tw-pan-x: ; --tw-pan-y: ; --tw-pinch-zoom: ; --tw-scroll-snap-strictness: proximity; --tw-gradient-from-position: ; --tw-gradient-via-position: ; --tw-gradient-to-position: ; --tw-ordinal: ; --tw-slashed-zero: ; --tw-numeric-figure: ; --tw-numeric-spacing: ; --tw-numeric-fraction: ; --tw-ring-inset: ; --tw-ring-offset-width: 0px; --tw-ring-offset-color: #fff; --tw-ring-color: rgba(69,89,164,.5); --tw-ring-offset-shadow: 0 0 transparent; --tw-ring-shadow: 0 0 transparent; --tw-shadow: 0 0 transparent; --tw-shadow-colored: 0 0 transparent; --tw-blur: ; --tw-brightness: ; --tw-contrast: ; --tw-grayscale: ; --tw-hue-rotate: ; --tw-invert: ; --tw-saturate: ; --tw-sepia: ; --tw-drop-shadow: ; --tw-backdrop-blur: ; --tw-backdrop-brightness: ; --tw-backdrop-contrast: ; --tw-backdrop-grayscale: ; --tw-backdrop-hue-rotate: ; --tw-backdrop-invert: ; --tw-backdrop-opacity: ; --tw-backdrop-saturate: ; --tw-backdrop-sepia: ; --tw-contain-size: ; --tw-contain-layout: ; --tw-contain-paint: ; --tw-contain-style: ; font-weight: 600; color: rgb(13, 13, 13); font-family: Söhne, ui-sans-serif, system-ui, -apple-system, &amp;quot;Segoe UI&amp;quot;, Roboto, Ubuntu, Cantarell, &amp;quot;Noto Sans&amp;quot;, sans-serif, &amp;quot;Helvetica Neue&amp;quot;, Arial, &amp;quot;Apple Color Emoji&amp;quot;, &amp;quot;Segoe UI Emoji&amp;quot;, &amp;quot;Segoe UI Symbol&amp;quot;, &amp;quot;Noto Color Emoji&amp;quot;; font-size: 16px; text-align: left; white-space-collapse: preserve; background-color: rgb(255, 255, 255);&quot;&gt;1. Service Name&lt;/span&gt;" style="text;html=1;align=center;verticalAlign=middle;whiteSpace=wrap;rounded=0;" vertex="1" parent="1">
          <mxGeometry x="678.9100000000001" y="1716.87" width="140" height="30" as="geometry" />
        </mxCell>
        <mxCell id="B_CpDAsh1I-Uy5bGZGsl-387" value="&lt;span style=&quot;border: 0px solid rgb(227, 227, 227); box-sizing: border-box; --tw-border-spacing-x: 0; --tw-border-spacing-y: 0; --tw-translate-x: 0; --tw-translate-y: 0; --tw-rotate: 0; --tw-skew-x: 0; --tw-skew-y: 0; --tw-scale-x: 1; --tw-scale-y: 1; --tw-pan-x: ; --tw-pan-y: ; --tw-pinch-zoom: ; --tw-scroll-snap-strictness: proximity; --tw-gradient-from-position: ; --tw-gradient-via-position: ; --tw-gradient-to-position: ; --tw-ordinal: ; --tw-slashed-zero: ; --tw-numeric-figure: ; --tw-numeric-spacing: ; --tw-numeric-fraction: ; --tw-ring-inset: ; --tw-ring-offset-width: 0px; --tw-ring-offset-color: #fff; --tw-ring-color: rgba(69,89,164,.5); --tw-ring-offset-shadow: 0 0 transparent; --tw-ring-shadow: 0 0 transparent; --tw-shadow: 0 0 transparent; --tw-shadow-colored: 0 0 transparent; --tw-blur: ; --tw-brightness: ; --tw-contrast: ; --tw-grayscale: ; --tw-hue-rotate: ; --tw-invert: ; --tw-saturate: ; --tw-sepia: ; --tw-drop-shadow: ; --tw-backdrop-blur: ; --tw-backdrop-brightness: ; --tw-backdrop-contrast: ; --tw-backdrop-grayscale: ; --tw-backdrop-hue-rotate: ; --tw-backdrop-invert: ; --tw-backdrop-opacity: ; --tw-backdrop-saturate: ; --tw-backdrop-sepia: ; --tw-contain-size: ; --tw-contain-layout: ; --tw-contain-paint: ; --tw-contain-style: ; font-weight: 600; color: rgb(13, 13, 13); font-family: Söhne, ui-sans-serif, system-ui, -apple-system, &amp;quot;Segoe UI&amp;quot;, Roboto, Ubuntu, Cantarell, &amp;quot;Noto Sans&amp;quot;, sans-serif, &amp;quot;Helvetica Neue&amp;quot;, Arial, &amp;quot;Apple Color Emoji&amp;quot;, &amp;quot;Segoe UI Emoji&amp;quot;, &amp;quot;Segoe UI Symbol&amp;quot;, &amp;quot;Noto Color Emoji&amp;quot;; font-size: 16px; text-align: left; white-space-collapse: preserve; background-color: rgb(255, 255, 255);&quot;&gt;5. Service Price&lt;/span&gt;&lt;div&gt;&lt;br&gt;&lt;/div&gt;" style="text;html=1;align=center;verticalAlign=middle;whiteSpace=wrap;rounded=0;" vertex="1" parent="1">
          <mxGeometry x="636.4100000000001" y="1826.87" width="220" height="60" as="geometry" />
        </mxCell>
        <mxCell id="B_CpDAsh1I-Uy5bGZGsl-388" value="&lt;span style=&quot;border: 0px solid rgb(227, 227, 227); box-sizing: border-box; --tw-border-spacing-x: 0; --tw-border-spacing-y: 0; --tw-translate-x: 0; --tw-translate-y: 0; --tw-rotate: 0; --tw-skew-x: 0; --tw-skew-y: 0; --tw-scale-x: 1; --tw-scale-y: 1; --tw-pan-x: ; --tw-pan-y: ; --tw-pinch-zoom: ; --tw-scroll-snap-strictness: proximity; --tw-gradient-from-position: ; --tw-gradient-via-position: ; --tw-gradient-to-position: ; --tw-ordinal: ; --tw-slashed-zero: ; --tw-numeric-figure: ; --tw-numeric-spacing: ; --tw-numeric-fraction: ; --tw-ring-inset: ; --tw-ring-offset-width: 0px; --tw-ring-offset-color: #fff; --tw-ring-color: rgba(69,89,164,.5); --tw-ring-offset-shadow: 0 0 transparent; --tw-ring-shadow: 0 0 transparent; --tw-shadow: 0 0 transparent; --tw-shadow-colored: 0 0 transparent; --tw-blur: ; --tw-brightness: ; --tw-contrast: ; --tw-grayscale: ; --tw-hue-rotate: ; --tw-invert: ; --tw-saturate: ; --tw-sepia: ; --tw-drop-shadow: ; --tw-backdrop-blur: ; --tw-backdrop-brightness: ; --tw-backdrop-contrast: ; --tw-backdrop-grayscale: ; --tw-backdrop-hue-rotate: ; --tw-backdrop-invert: ; --tw-backdrop-opacity: ; --tw-backdrop-saturate: ; --tw-backdrop-sepia: ; --tw-contain-size: ; --tw-contain-layout: ; --tw-contain-paint: ; --tw-contain-style: ; font-weight: 600; color: rgb(13, 13, 13); font-family: Söhne, ui-sans-serif, system-ui, -apple-system, &amp;quot;Segoe UI&amp;quot;, Roboto, Ubuntu, Cantarell, &amp;quot;Noto Sans&amp;quot;, sans-serif, &amp;quot;Helvetica Neue&amp;quot;, Arial, &amp;quot;Apple Color Emoji&amp;quot;, &amp;quot;Segoe UI Emoji&amp;quot;, &amp;quot;Segoe UI Symbol&amp;quot;, &amp;quot;Noto Color Emoji&amp;quot;; font-size: 16px; text-align: left; white-space-collapse: preserve; background-color: rgb(255, 255, 255);&quot;&gt;2. Service Benefits&lt;/span&gt;" style="text;html=1;align=center;verticalAlign=middle;whiteSpace=wrap;rounded=0;" vertex="1" parent="1">
          <mxGeometry x="686.4100000000001" y="1746.87" width="140" height="30" as="geometry" />
        </mxCell>
        <mxCell id="B_CpDAsh1I-Uy5bGZGsl-389" value="&lt;span style=&quot;border: 0px solid rgb(227, 227, 227); box-sizing: border-box; --tw-border-spacing-x: 0; --tw-border-spacing-y: 0; --tw-translate-x: 0; --tw-translate-y: 0; --tw-rotate: 0; --tw-skew-x: 0; --tw-skew-y: 0; --tw-scale-x: 1; --tw-scale-y: 1; --tw-pan-x: ; --tw-pan-y: ; --tw-pinch-zoom: ; --tw-scroll-snap-strictness: proximity; --tw-gradient-from-position: ; --tw-gradient-via-position: ; --tw-gradient-to-position: ; --tw-ordinal: ; --tw-slashed-zero: ; --tw-numeric-figure: ; --tw-numeric-spacing: ; --tw-numeric-fraction: ; --tw-ring-inset: ; --tw-ring-offset-width: 0px; --tw-ring-offset-color: #fff; --tw-ring-color: rgba(69,89,164,.5); --tw-ring-offset-shadow: 0 0 transparent; --tw-ring-shadow: 0 0 transparent; --tw-shadow: 0 0 transparent; --tw-shadow-colored: 0 0 transparent; --tw-blur: ; --tw-brightness: ; --tw-contrast: ; --tw-grayscale: ; --tw-hue-rotate: ; --tw-invert: ; --tw-saturate: ; --tw-sepia: ; --tw-drop-shadow: ; --tw-backdrop-blur: ; --tw-backdrop-brightness: ; --tw-backdrop-contrast: ; --tw-backdrop-grayscale: ; --tw-backdrop-hue-rotate: ; --tw-backdrop-invert: ; --tw-backdrop-opacity: ; --tw-backdrop-saturate: ; --tw-backdrop-sepia: ; --tw-contain-size: ; --tw-contain-layout: ; --tw-contain-paint: ; --tw-contain-style: ; font-weight: 600; color: rgb(13, 13, 13); font-family: Söhne, ui-sans-serif, system-ui, -apple-system, &amp;quot;Segoe UI&amp;quot;, Roboto, Ubuntu, Cantarell, &amp;quot;Noto Sans&amp;quot;, sans-serif, &amp;quot;Helvetica Neue&amp;quot;, Arial, &amp;quot;Apple Color Emoji&amp;quot;, &amp;quot;Segoe UI Emoji&amp;quot;, &amp;quot;Segoe UI Symbol&amp;quot;, &amp;quot;Noto Color Emoji&amp;quot;; font-size: 16px; text-align: left; white-space-collapse: preserve; background-color: rgb(255, 255, 255);&quot;&gt;3. Service Ratings&lt;/span&gt;" style="text;html=1;align=center;verticalAlign=middle;whiteSpace=wrap;rounded=0;" vertex="1" parent="1">
          <mxGeometry x="686.4100000000001" y="1776.87" width="140" height="30" as="geometry" />
        </mxCell>
        <mxCell id="B_CpDAsh1I-Uy5bGZGsl-390" value="&lt;span style=&quot;border: 0px solid rgb(227, 227, 227); box-sizing: border-box; --tw-border-spacing-x: 0; --tw-border-spacing-y: 0; --tw-translate-x: 0; --tw-translate-y: 0; --tw-rotate: 0; --tw-skew-x: 0; --tw-skew-y: 0; --tw-scale-x: 1; --tw-scale-y: 1; --tw-pan-x: ; --tw-pan-y: ; --tw-pinch-zoom: ; --tw-scroll-snap-strictness: proximity; --tw-gradient-from-position: ; --tw-gradient-via-position: ; --tw-gradient-to-position: ; --tw-ordinal: ; --tw-slashed-zero: ; --tw-numeric-figure: ; --tw-numeric-spacing: ; --tw-numeric-fraction: ; --tw-ring-inset: ; --tw-ring-offset-width: 0px; --tw-ring-offset-color: #fff; --tw-ring-color: rgba(69,89,164,.5); --tw-ring-offset-shadow: 0 0 transparent; --tw-ring-shadow: 0 0 transparent; --tw-shadow: 0 0 transparent; --tw-shadow-colored: 0 0 transparent; --tw-blur: ; --tw-brightness: ; --tw-contrast: ; --tw-grayscale: ; --tw-hue-rotate: ; --tw-invert: ; --tw-saturate: ; --tw-sepia: ; --tw-drop-shadow: ; --tw-backdrop-blur: ; --tw-backdrop-brightness: ; --tw-backdrop-contrast: ; --tw-backdrop-grayscale: ; --tw-backdrop-hue-rotate: ; --tw-backdrop-invert: ; --tw-backdrop-opacity: ; --tw-backdrop-saturate: ; --tw-backdrop-sepia: ; --tw-contain-size: ; --tw-contain-layout: ; --tw-contain-paint: ; --tw-contain-style: ; font-weight: 600; color: rgb(13, 13, 13); font-family: Söhne, ui-sans-serif, system-ui, -apple-system, &amp;quot;Segoe UI&amp;quot;, Roboto, Ubuntu, Cantarell, &amp;quot;Noto Sans&amp;quot;, sans-serif, &amp;quot;Helvetica Neue&amp;quot;, Arial, &amp;quot;Apple Color Emoji&amp;quot;, &amp;quot;Segoe UI Emoji&amp;quot;, &amp;quot;Segoe UI Symbol&amp;quot;, &amp;quot;Noto Color Emoji&amp;quot;; font-size: 16px; text-align: left; white-space-collapse: preserve; background-color: rgb(255, 255, 255);&quot;&gt;4. Service Composition&lt;/span&gt;" style="text;html=1;align=center;verticalAlign=middle;whiteSpace=wrap;rounded=0;" vertex="1" parent="1">
          <mxGeometry x="686.4100000000001" y="1796.87" width="180" height="40" as="geometry" />
        </mxCell>
        <mxCell id="B_CpDAsh1I-Uy5bGZGsl-391" value="Product Price&amp;nbsp;" style="text;html=1;align=center;verticalAlign=middle;whiteSpace=wrap;rounded=0;" vertex="1" parent="1">
          <mxGeometry x="1001.4100000000001" y="1726.87" width="155" height="30" as="geometry" />
        </mxCell>
        <mxCell id="B_CpDAsh1I-Uy5bGZGsl-392" value="" style="rounded=1;whiteSpace=wrap;html=1;" vertex="1" parent="1">
          <mxGeometry x="1006.4100000000001" y="1776.87" width="171.5" height="50" as="geometry" />
        </mxCell>
        <mxCell id="B_CpDAsh1I-Uy5bGZGsl-393" value="Any Running Offers" style="text;html=1;align=center;verticalAlign=middle;whiteSpace=wrap;rounded=0;" vertex="1" parent="1">
          <mxGeometry x="1011.8700000000001" y="1776.87" width="130" height="35" as="geometry" />
        </mxCell>
        <mxCell id="B_CpDAsh1I-Uy5bGZGsl-394" value="" style="rounded=1;whiteSpace=wrap;html=1;" vertex="1" parent="1">
          <mxGeometry x="1020.6600000000001" y="1701.87" width="120" height="60" as="geometry" />
        </mxCell>
        <mxCell id="B_CpDAsh1I-Uy5bGZGsl-395" value="Service Cost" style="text;html=1;align=center;verticalAlign=middle;whiteSpace=wrap;rounded=0;" vertex="1" parent="1">
          <mxGeometry x="1046.41" y="1716.87" width="80" height="30" as="geometry" />
        </mxCell>
        <mxCell id="B_CpDAsh1I-Uy5bGZGsl-396" value="Availability Status" style="rounded=1;whiteSpace=wrap;html=1;" vertex="1" parent="1">
          <mxGeometry x="995.4100000000001" y="1846.87" width="165.01" height="60" as="geometry" />
        </mxCell>
        <mxCell id="B_CpDAsh1I-Uy5bGZGsl-397" value="Payment Options" style="rounded=1;whiteSpace=wrap;html=1;" vertex="1" parent="1">
          <mxGeometry x="1003.9100000000001" y="1916.87" width="152.5" height="100" as="geometry" />
        </mxCell>
        <mxCell id="B_CpDAsh1I-Uy5bGZGsl-424" style="edgeStyle=orthogonalEdgeStyle;rounded=0;orthogonalLoop=1;jettySize=auto;html=1;exitX=0.5;exitY=1;exitDx=0;exitDy=0;" edge="1" parent="1" source="B_CpDAsh1I-Uy5bGZGsl-398" target="sB9u__14FY8OSFTAFi7T-26">
          <mxGeometry relative="1" as="geometry" />
        </mxCell>
        <mxCell id="B_CpDAsh1I-Uy5bGZGsl-398" value="Book Now" style="ellipse;whiteSpace=wrap;html=1;" vertex="1" parent="1">
          <mxGeometry x="1056.41" y="2026.87" width="60" height="60" as="geometry" />
        </mxCell>
        <mxCell id="B_CpDAsh1I-Uy5bGZGsl-399" value="Review List&amp;nbsp;" style="rounded=1;whiteSpace=wrap;html=1;" vertex="1" parent="1">
          <mxGeometry x="1286.41" y="1696.87" width="170" height="60" as="geometry" />
        </mxCell>
        <mxCell id="B_CpDAsh1I-Uy5bGZGsl-400" value="" style="rounded=1;whiteSpace=wrap;html=1;" vertex="1" parent="1">
          <mxGeometry x="1286.41" y="1786.87" width="180" height="60" as="geometry" />
        </mxCell>
        <mxCell id="B_CpDAsh1I-Uy5bGZGsl-401" value="UserName" style="text;html=1;align=center;verticalAlign=middle;whiteSpace=wrap;rounded=0;" vertex="1" parent="1">
          <mxGeometry x="1326.41" y="1786.87" width="60" height="30" as="geometry" />
        </mxCell>
        <mxCell id="B_CpDAsh1I-Uy5bGZGsl-402" value="Review Text" style="text;html=1;align=center;verticalAlign=middle;whiteSpace=wrap;rounded=0;" vertex="1" parent="1">
          <mxGeometry x="1316.41" y="1801.87" width="90" height="30" as="geometry" />
        </mxCell>
        <mxCell id="B_CpDAsh1I-Uy5bGZGsl-403" value="Review Stars" style="text;html=1;align=center;verticalAlign=middle;whiteSpace=wrap;rounded=0;" vertex="1" parent="1">
          <mxGeometry x="1321.41" y="1816.87" width="80" height="30" as="geometry" />
        </mxCell>
        <mxCell id="B_CpDAsh1I-Uy5bGZGsl-404" value="" style="rounded=1;whiteSpace=wrap;html=1;" vertex="1" parent="1">
          <mxGeometry x="1276.41" y="1876.87" width="180" height="60" as="geometry" />
        </mxCell>
        <mxCell id="B_CpDAsh1I-Uy5bGZGsl-405" value="" style="rounded=1;whiteSpace=wrap;html=1;" vertex="1" parent="1">
          <mxGeometry x="1276.41" y="1966.87" width="180" height="60" as="geometry" />
        </mxCell>
        <mxCell id="B_CpDAsh1I-Uy5bGZGsl-406" value="Review Text" style="text;html=1;align=center;verticalAlign=middle;whiteSpace=wrap;rounded=0;" vertex="1" parent="1">
          <mxGeometry x="1321.41" y="1891.87" width="90" height="30" as="geometry" />
        </mxCell>
        <mxCell id="B_CpDAsh1I-Uy5bGZGsl-407" value="Review Stars" style="text;html=1;align=center;verticalAlign=middle;whiteSpace=wrap;rounded=0;" vertex="1" parent="1">
          <mxGeometry x="1326.41" y="1906.87" width="80" height="30" as="geometry" />
        </mxCell>
        <mxCell id="B_CpDAsh1I-Uy5bGZGsl-408" value="UserName" style="text;html=1;align=center;verticalAlign=middle;whiteSpace=wrap;rounded=0;" vertex="1" parent="1">
          <mxGeometry x="1331.41" y="1871.87" width="60" height="30" as="geometry" />
        </mxCell>
        <mxCell id="B_CpDAsh1I-Uy5bGZGsl-409" value="UserName" style="text;html=1;align=center;verticalAlign=middle;whiteSpace=wrap;rounded=0;" vertex="1" parent="1">
          <mxGeometry x="1331.41" y="1966.87" width="60" height="30" as="geometry" />
        </mxCell>
        <mxCell id="B_CpDAsh1I-Uy5bGZGsl-410" value="Review Text" style="text;html=1;align=center;verticalAlign=middle;whiteSpace=wrap;rounded=0;" vertex="1" parent="1">
          <mxGeometry x="1316.41" y="1982.87" width="90" height="30" as="geometry" />
        </mxCell>
        <mxCell id="B_CpDAsh1I-Uy5bGZGsl-411" value="Review Stars" style="text;html=1;align=center;verticalAlign=middle;whiteSpace=wrap;rounded=0;" vertex="1" parent="1">
          <mxGeometry x="1321.41" y="1996.87" width="80" height="30" as="geometry" />
        </mxCell>
        <mxCell id="B_CpDAsh1I-Uy5bGZGsl-412" style="edgeStyle=orthogonalEdgeStyle;rounded=0;orthogonalLoop=1;jettySize=auto;html=1;exitX=1;exitY=0.5;exitDx=0;exitDy=0;entryX=-0.004;entryY=0.384;entryDx=0;entryDy=0;entryPerimeter=0;" edge="1" parent="1" source="B_CpDAsh1I-Uy5bGZGsl-114" target="B_CpDAsh1I-Uy5bGZGsl-99">
          <mxGeometry relative="1" as="geometry" />
        </mxCell>
        <mxCell id="B_CpDAsh1I-Uy5bGZGsl-413" style="edgeStyle=orthogonalEdgeStyle;rounded=0;orthogonalLoop=1;jettySize=auto;html=1;exitX=0.75;exitY=1;exitDx=0;exitDy=0;entryX=1.005;entryY=0.713;entryDx=0;entryDy=0;entryPerimeter=0;" edge="1" parent="1" source="B_CpDAsh1I-Uy5bGZGsl-118" target="B_CpDAsh1I-Uy5bGZGsl-121">
          <mxGeometry relative="1" as="geometry" />
        </mxCell>
        <mxCell id="B_CpDAsh1I-Uy5bGZGsl-414" style="edgeStyle=orthogonalEdgeStyle;rounded=0;orthogonalLoop=1;jettySize=auto;html=1;exitX=1;exitY=0.5;exitDx=0;exitDy=0;entryX=0.852;entryY=0;entryDx=0;entryDy=0;entryPerimeter=0;" edge="1" parent="1" source="B_CpDAsh1I-Uy5bGZGsl-125" target="B_CpDAsh1I-Uy5bGZGsl-173">
          <mxGeometry relative="1" as="geometry" />
        </mxCell>
        <mxCell id="B_CpDAsh1I-Uy5bGZGsl-415" style="edgeStyle=orthogonalEdgeStyle;rounded=0;orthogonalLoop=1;jettySize=auto;html=1;entryX=0.979;entryY=0.792;entryDx=0;entryDy=0;entryPerimeter=0;" edge="1" parent="1" source="B_CpDAsh1I-Uy5bGZGsl-108" target="B_CpDAsh1I-Uy5bGZGsl-109">
          <mxGeometry relative="1" as="geometry" />
        </mxCell>
        <mxCell id="B_CpDAsh1I-Uy5bGZGsl-423" style="edgeStyle=orthogonalEdgeStyle;rounded=0;orthogonalLoop=1;jettySize=auto;html=1;exitX=0.5;exitY=1;exitDx=0;exitDy=0;entryX=0.996;entryY=0.44;entryDx=0;entryDy=0;entryPerimeter=0;" edge="1" parent="1" source="B_CpDAsh1I-Uy5bGZGsl-352" target="sB9u__14FY8OSFTAFi7T-26">
          <mxGeometry relative="1" as="geometry" />
        </mxCell>
        <mxCell id="B_CpDAsh1I-Uy5bGZGsl-425" style="edgeStyle=orthogonalEdgeStyle;rounded=0;orthogonalLoop=1;jettySize=auto;html=1;exitX=0;exitY=0.25;exitDx=0;exitDy=0;entryX=0.336;entryY=0.997;entryDx=0;entryDy=0;entryPerimeter=0;" edge="1" parent="1" source="9G4B2yJPAgDf-MDbb51d-38" target="B_CpDAsh1I-Uy5bGZGsl-50">
          <mxGeometry relative="1" as="geometry" />
        </mxCell>
      </root>
    </mxGraphModel>
  </diagram>
</mxfile>
